<svg aria-hidden="true" style="width:0;height:0;position:absolute;overflow:hidden" xmlns="http://www.w3.org/2000/svg"><defs><symbol id="icon-close" viewBox="0 0 32 32"><path fill="#fcfcfc" style="fill:var(--color1,#fcfcfc)" d="M23.88 6.7 16 14.6 8.12 6.71a.998.998 0 0 0-1.631.776c0 .232.079.446.212.616L6.699 8.1l7.89 7.9-7.89 7.88a1 1 0 1 0 1.408 1.412l.001-.001 7.89-7.88 7.88 7.89a1 1 0 0 0 1.408-1.412l.001.001-7.88-7.89 7.88-7.88a1 1 0 1 0-1.399-1.421l-.001.001z"/></symbol><symbol id="icon-menu" viewBox="0 0 32 32"><path fill="#fff" style="fill:var(--color4,#fff)" d="M26.73 14.67H5.27c-.7 0-1.27.56-1.27 1.26v.14c0 .7.57 1.26 1.27 1.26h21.46c.7 0 1.27-.56 1.27-1.26v-.14c0-.7-.57-1.26-1.27-1.26zm0 6.66H5.27c-.7 0-1.27.57-1.27 1.27v.13c0 .7.57 1.27 1.27 1.27h21.46c.7 0 1.27-.57 1.27-1.27v-.13c0-.7-.57-1.27-1.27-1.27zm0-13.33H5.27C4.57 8 4 8.57 4 9.27v.13c0 .7.57 1.27 1.27 1.27h21.46c.7 0 1.27-.57 1.27-1.27v-.13c0-.7-.57-1.27-1.27-1.27z"/></symbol><symbol id="icon-arrow" viewBox="0 0 32 32"><path d="M10.586 3.272a2 2 0 0 0 0 2.828l9.9 9.9-9.9 9.9a1.998 1.998 0 0 0 .025 2.804 2.001 2.001 0 0 0 2.804.025l11.314-11.314a2 2 0 0 0 0-2.828L13.415 3.273a2 2 0 0 0-2.828 0z"/></symbol><symbol id="icon-dots-desktop" viewBox="0 0 100 32"><path fill="#f8d24e" style="fill:var(--color2,#f8d24e)" d="M45.81 25.797c0 .287-.219.52-.488.52s-.488-.233-.488-.52c0-.287.219-.52.488-.52s.488.233.488.52zM46.949 25.103c0 .287-.219.52-.488.52s-.488-.233-.488-.52c0-.287.219-.52.488-.52s.488.233.488.52zM44.915 27.705c0 .287-.219.52-.488.52s-.488-.233-.488-.52c0-.287.219-.52.488-.52s.488.233.488.52zM45.972 27.012c0 .287-.219.52-.488.52s-.488-.233-.488-.52c0-.287.219-.52.488-.52s.488.233.488.52zM47.193 26.231c0 .287-.219.52-.488.52s-.488-.233-.488-.52c0-.287.219-.52.488-.52s.488.233.488.52zM48.333 25.538c0 .287-.219.52-.488.52s-.488-.233-.488-.52c0-.287.219-.52.488-.52s.488.233.488.52z"/><path fill="#f8d24e" style="fill:var(--color2,#f8d24e)" d="M46.705 27.792c0 .287-.219.52-.488.52s-.488-.233-.488-.52c0-.287.219-.52.488-.52s.488.233.488.52zM47.763 27.098c0 .287-.219.52-.488.52s-.488-.233-.488-.52c0-.287.219-.52.488-.52s.488.233.488.52zM48.983 26.317c0 .287-.219.52-.488.52s-.488-.233-.488-.52c0-.287.219-.52.488-.52s.488.233.488.52zM50.123 25.624c0 .287-.219.52-.488.52s-.488-.233-.488-.52c0-.287.219-.52.488-.52s.488.233.488.52zM48.82 27.792c0 .287-.219.52-.488.52s-.488-.233-.488-.52c0-.287.219-.52.488-.52s.488.233.488.52zM49.878 27.098c0 .287-.219.52-.488.52s-.488-.233-.488-.52c0-.287.219-.52.488-.52s.488.233.488.52zM51.098 26.317c0 .287-.219.52-.488.52s-.488-.233-.488-.52c0-.287.219-.52.488-.52s.488.233.488.52zM52.237 25.624c0 .287-.219.52-.488.52s-.488-.233-.488-.52c0-.287.219-.52.488-.52s.488.233.488.52z"/><path fill="#f8d24e" style="fill:var(--color2,#f8d24e)" d="M50.61 27.705c0 .287-.219.52-.488.52s-.488-.233-.488-.52c0-.287.219-.52.488-.52s.488.233.488.52zM51.668 27.012c0 .287-.219.52-.488.52s-.488-.233-.488-.52c0-.287.219-.52.488-.52s.488.233.488.52zM52.888 26.231c0 .287-.219.52-.488.52s-.488-.233-.488-.52c0-.287.219-.52.488-.52s.488.233.488.52zM54.028 25.538c0 .287-.219.52-.488.52s-.488-.233-.488-.52c0-.287.219-.52.488-.52s.488.233.488.52zM52.645 27.618c0 .287-.219.52-.488.52s-.488-.233-.488-.52c0-.287.219-.52.488-.52s.488.233.488.52zM53.703 26.925c0 .287-.219.52-.488.52s-.488-.233-.488-.52c0-.287.219-.52.488-.52s.488.233.488.52zM54.922 26.144c0 .287-.219.52-.488.52s-.488-.233-.488-.52c0-.287.219-.52.488-.52s.488.233.488.52zM56.062 25.45c0 .287-.219.52-.488.52s-.488-.233-.488-.52c0-.287.219-.52.488-.52s.488.233.488.52z"/><path fill="#f8d24e" style="fill:var(--color2,#f8d24e)" d="M54.516 25.363c0 .287-.219.52-.488.52s-.488-.233-.488-.52c0-.287.219-.52.488-.52s.488.233.488.52zM55.573 24.67c0 .287-.219.52-.488.52s-.488-.233-.488-.52c0-.287.219-.52.488-.52s.488.233.488.52zM56.794 23.889c0 .287-.219.52-.488.52s-.488-.233-.488-.52c0-.287.219-.52.488-.52s.488.233.488.52zM57.933 23.196c0 .287-.219.52-.488.52s-.488-.233-.488-.52c0-.287.219-.52.488-.52s.488.233.488.52z"/></symbol><symbol id="icon-dots-mobile" viewBox="0 0 205 32"><path fill="#f8d24e" style="fill:var(--color2,#f8d24e)" d="M156.538 29.619c0 .983-.745 1.779-1.664 1.779s-1.664-.797-1.664-1.779c0-.983.745-1.779 1.664-1.779s1.664.797 1.664 1.779zM160.147 27.245c0 .983-.745 1.779-1.664 1.779s-1.664-.797-1.664-1.779c0-.983.745-1.779 1.664-1.779s1.664.797 1.664 1.779zM164.307 24.576c0 .983-.745 1.779-1.664 1.779s-1.664-.797-1.664-1.779c0-.983.745-1.779 1.664-1.779s1.664.797 1.664 1.779zM168.186 22.208c0 .983-.745 1.779-1.664 1.779s-1.664-.797-1.664-1.779c0-.983.745-1.779 1.664-1.779s1.664.797 1.664 1.779zM165.971 28.429c0 .983-.745 1.779-1.664 1.779s-1.664-.797-1.664-1.779c0-.983.745-1.779 1.664-1.779s1.664.797 1.664 1.779zM169.574 26.061c0 .983-.745 1.779-1.664 1.779s-1.664-.797-1.664-1.779c0-.983.745-1.779 1.664-1.779s1.664.797 1.664 1.779zM173.734 23.392c0 .983-.745 1.779-1.664 1.779s-1.664-.797-1.664-1.779c0-.983.745-1.779 1.664-1.779s1.664.797 1.664 1.779zM177.619 21.024c0 .983-.745 1.779-1.664 1.779s-1.664-.797-1.664-1.779c0-.983.745-1.779 1.664-1.779s1.664.797 1.664 1.779zM174.016 27.539c0 .983-.745 1.779-1.664 1.779s-1.664-.797-1.664-1.779c0-.983.745-1.779 1.664-1.779s1.664.797 1.664 1.779zM177.619 25.171c0 .983-.745 1.779-1.664 1.779s-1.664-.797-1.664-1.779c0-.983.745-1.779 1.664-1.779s1.664.797 1.664 1.779zM181.779 22.502c0 .983-.745 1.779-1.664 1.779s-1.664-.797-1.664-1.779c0-.983.745-1.779 1.664-1.779s1.664.797 1.664 1.779zM185.664 20.134c0 .983-.745 1.779-1.664 1.779s-1.664-.797-1.664-1.779c0-.983.745-1.779 1.664-1.779s1.664.797 1.664 1.779zM181.779 26.355c0 .983-.745 1.779-1.664 1.779s-1.664-.797-1.664-1.779c0-.983.745-1.779 1.664-1.779s1.664.797 1.664 1.779zM185.382 23.987c0 .983-.745 1.779-1.664 1.779s-1.664-.797-1.664-1.779c0-.983.745-1.779 1.664-1.779s1.664.797 1.664 1.779zM189.542 21.318c0 .983-.745 1.779-1.664 1.779s-1.664-.797-1.664-1.779c0-.983.745-1.779 1.664-1.779s1.664.797 1.664 1.779zM193.427 18.944c0 .983-.745 1.779-1.664 1.779s-1.664-.797-1.664-1.779c0-.983.745-1.779 1.664-1.779s1.664.797 1.664 1.779zM184.275 29.619c0 .983-.745 1.779-1.664 1.779s-1.664-.797-1.664-1.779c0-.983.745-1.779 1.664-1.779s1.664.797 1.664 1.779zM187.878 27.245c0 .983-.745 1.779-1.664 1.779s-1.664-.797-1.664-1.779c0-.983.745-1.779 1.664-1.779s1.664.797 1.664 1.779zM192.87 29.914c0 .983-.745 1.779-1.664 1.779s-1.664-.797-1.664-1.779c0-.983.745-1.779 1.664-1.779s1.664.797 1.664 1.779zM192.038 24.576c0 .983-.745 1.779-1.664 1.779s-1.664-.797-1.664-1.779c0-.983.745-1.779 1.664-1.779s1.664.797 1.664 1.779zM197.037 27.245c0 .983-.745 1.779-1.664 1.779s-1.664-.797-1.664-1.779c0-.983.745-1.779 1.664-1.779s1.664.797 1.664 1.779zM200.915 29.914c0 .983-.745 1.779-1.664 1.779s-1.664-.797-1.664-1.779c0-.983.745-1.779 1.664-1.779s1.664.797 1.664 1.779zM195.923 22.208c0 .983-.745 1.779-1.664 1.779s-1.664-.797-1.664-1.779c0-.983.745-1.779 1.664-1.779s1.664.797 1.664 1.779zM200.915 24.877c0 .983-.745 1.779-1.664 1.779s-1.664-.797-1.664-1.779c0-.983.745-1.779 1.664-1.779s1.664.797 1.664 1.779zM204.8 27.539c0 .983-.745 1.779-1.664 1.779s-1.664-.797-1.664-1.779c0-.983.745-1.779 1.664-1.779s1.664.797 1.664 1.779zM139.622 10.054c0 .983-.745 1.779-1.664 1.779s-1.664-.797-1.664-1.779c0-.983.745-1.779 1.664-1.779s1.664.797 1.664 1.779zM143.226 7.686c0 .983-.745 1.779-1.664 1.779s-1.664-.797-1.664-1.779c0-.983.745-1.779 1.664-1.779s1.664.797 1.664 1.779zM147.386 5.018c0 .983-.745 1.779-1.664 1.779s-1.664-.797-1.664-1.779c0-.983.745-1.779 1.664-1.779s1.664.797 1.664 1.779zM151.27 2.643c0 .983-.745 1.779-1.664 1.779s-1.664-.797-1.664-1.779c0-.983.745-1.779 1.664-1.779s1.664.797 1.664 1.779zM132.685 9.76c0 .983-.745 1.779-1.664 1.779s-1.664-.797-1.664-1.779c0-.983.745-1.779 1.664-1.779s1.664.797 1.664 1.779zM136.294 7.386c0 .983-.745 1.779-1.664 1.779s-1.664-.797-1.664-1.779c0-.983.745-1.779 1.664-1.779s1.664.797 1.664 1.779zM140.454 4.717c0 .983-.745 1.779-1.664 1.779s-1.664-.797-1.664-1.779c0-.983.745-1.779 1.664-1.779s1.664.797 1.664 1.779zM144.333 2.349c0 .983-.745 1.779-1.664 1.779s-1.664-.797-1.664-1.779c0-.983.745-1.779 1.664-1.779s1.664.797 1.664 1.779zM148.218 29.619c0 .983-.745 1.779-1.664 1.779s-1.664-.797-1.664-1.779c0-.983.745-1.779 1.664-1.779s1.664.797 1.664 1.779zM151.827 27.245c0 .983-.745 1.779-1.664 1.779s-1.664-.797-1.664-1.779c0-.983.745-1.779 1.664-1.779s1.664.797 1.664 1.779zM155.987 24.576c0 .983-.745 1.779-1.664 1.779s-1.664-.797-1.664-1.779c0-.983.745-1.779 1.664-1.779s1.664.797 1.664 1.779zM159.866 22.208c0 .983-.745 1.779-1.664 1.779s-1.664-.797-1.664-1.779c0-.983.745-1.779 1.664-1.779s1.664.797 1.664 1.779zM143.782 27.84c0 .983-.745 1.779-1.664 1.779s-1.664-.797-1.664-1.779c0-.983.745-1.779 1.664-1.779s1.664.797 1.664 1.779zM147.386 25.466c0 .983-.745 1.779-1.664 1.779s-1.664-.797-1.664-1.779c0-.983.745-1.779 1.664-1.779s1.664.797 1.664 1.779zM151.546 22.797c0 .983-.745 1.779-1.664 1.779s-1.664-.797-1.664-1.779c0-.983.745-1.779 1.664-1.779s1.664.797 1.664 1.779zM155.43 20.429c0 .983-.745 1.779-1.664 1.779s-1.664-.797-1.664-1.779c0-.983.745-1.779 1.664-1.779s1.664.797 1.664 1.779zM145.446 21.613c0 .983-.745 1.779-1.664 1.779s-1.664-.797-1.664-1.779c0-.983.745-1.779 1.664-1.779s1.664.797 1.664 1.779zM149.05 19.245c0 .983-.745 1.779-1.664 1.779s-1.664-.797-1.664-1.779c0-.983.745-1.779 1.664-1.779s1.664.797 1.664 1.779zM153.21 16.576c0 .983-.745 1.779-1.664 1.779s-1.664-.797-1.664-1.779c0-.983.745-1.779 1.664-1.779s1.664.797 1.664 1.779zM157.094 14.202c0 .983-.745 1.779-1.664 1.779s-1.664-.797-1.664-1.779c0-.983.745-1.779 1.664-1.779s1.664.797 1.664 1.779zM145.446 11.238c0 .983-.745 1.779-1.664 1.779s-1.664-.797-1.664-1.779c0-.983.745-1.779 1.664-1.779s1.664.797 1.664 1.779zM149.05 8.87c0 .983-.745 1.779-1.664 1.779s-1.664-.797-1.664-1.779c0-.983.745-1.779 1.664-1.779s1.664.797 1.664 1.779zM153.21 6.202c0 .983-.745 1.779-1.664 1.779s-1.664-.797-1.664-1.779c0-.983.745-1.779 1.664-1.779s1.664.797 1.664 1.779zM157.094 3.834c0 .983-.745 1.779-1.664 1.779s-1.664-.797-1.664-1.779c0-.983.745-1.779 1.664-1.779s1.664.797 1.664 1.779zM144.614 16.87c0 .983-.745 1.779-1.664 1.779s-1.664-.797-1.664-1.779c0-.983.745-1.779 1.664-1.779s1.664.797 1.664 1.779zM148.218 14.502c0 .983-.745 1.779-1.664 1.779s-1.664-.797-1.664-1.779c0-.983.745-1.779 1.664-1.779s1.664.797 1.664 1.779zM152.378 11.834c0 .983-.745 1.779-1.664 1.779s-1.664-.797-1.664-1.779c0-.983.745-1.779 1.664-1.779s1.664.797 1.664 1.779zM156.262 9.466c0 .983-.745 1.779-1.664 1.779s-1.664-.797-1.664-1.779c0-.983.745-1.779 1.664-1.779s1.664.797 1.664 1.779zM127.142 8.275c0 .983-.745 1.779-1.664 1.779s-1.664-.797-1.664-1.779c0-.983.745-1.779 1.664-1.779s1.664.797 1.664 1.779zM130.746 5.907c0 .983-.745 1.779-1.664 1.779s-1.664-.797-1.664-1.779c0-.983.745-1.779 1.664-1.779s1.664.797 1.664 1.779zM134.906 3.238c0 .983-.745 1.779-1.664 1.779s-1.664-.797-1.664-1.779c0-.983.745-1.779 1.664-1.779s1.664.797 1.664 1.779z"/><path fill="#f8d24e" style="fill:var(--color2,#f8d24e)" d="M132.966 10.054c.915 0 1.664-.794 1.664-1.779 0-.979-.749-1.779-1.664-1.779-.922 0-1.664.8-1.664 1.779 0 .986.742 1.779 1.664 1.779zM56.439 21.474c.142.987-.49 1.909-1.411 2.06s-1.782-.527-1.924-1.513c-.142-.987.49-1.909 1.411-2.06s1.782.527 1.924 1.513zM59.715 18.504c.142.987-.49 1.909-1.411 2.06s-1.782-.527-1.924-1.513c-.142-.987.49-1.909 1.411-2.06s1.782.527 1.924 1.513zM63.504 15.144c.142.987-.49 1.909-1.411 2.06s-1.782-.527-1.924-1.513c-.142-.987.49-1.909 1.411-2.06s1.782.527 1.924 1.513zM67.056 12.13c.142.987-.49 1.909-1.411 2.06s-1.782-.527-1.924-1.513c-.142-.987.49-1.909 1.411-2.06s1.782.527 1.924 1.513zM3.482 21.472c0 .997-.779 1.805-1.741 1.805S0 22.469 0 21.472c0-.997.779-1.805 1.741-1.805s1.741.808 1.741 1.805zM7.251 19.066c0 .997-.779 1.805-1.741 1.805s-1.741-.808-1.741-1.805c0-.997.779-1.805 1.741-1.805s1.741.808 1.741 1.805zM11.603 16.358c0 .997-.779 1.805-1.741 1.805s-1.741-.808-1.741-1.805c0-.997.779-1.805 1.741-1.805s1.741.808 1.741 1.805zM15.667 13.952c0 .997-.779 1.805-1.741 1.805s-1.741-.808-1.741-1.805c0-.997.779-1.805 1.741-1.805s1.741.808 1.741 1.805zM5.222 25.984c0 .997-.779 1.805-1.741 1.805s-1.741-.808-1.741-1.805c0-.997.779-1.805 1.741-1.805s1.741.808 1.741 1.805zM8.992 23.578c0 .997-.779 1.805-1.741 1.805s-1.741-.808-1.741-1.805c0-.997.779-1.805 1.741-1.805s1.741.808 1.741 1.805zM13.344 20.87c0 .997-.779 1.805-1.741 1.805s-1.741-.808-1.741-1.805c0-.997.779-1.805 1.741-1.805s1.741.808 1.741 1.805zM17.408 18.464c0 .997-.779 1.805-1.741 1.805s-1.741-.808-1.741-1.805c0-.997.779-1.805 1.741-1.805s1.741.808 1.741 1.805zM9.574 28.39c0 .997-.779 1.805-1.741 1.805s-1.741-.808-1.741-1.805c0-.997.779-1.805 1.741-1.805s1.741.808 1.741 1.805zM13.344 25.984c0 .997-.779 1.805-1.741 1.805s-1.741-.808-1.741-1.805c0-.997.779-1.805 1.741-1.805s1.741.808 1.741 1.805zM17.696 23.277c0 .997-.779 1.805-1.741 1.805s-1.741-.808-1.741-1.805c0-.997.779-1.805 1.741-1.805s1.741.808 1.741 1.805zM21.76 20.87c0 .997-.779 1.805-1.741 1.805s-1.741-.808-1.741-1.805c0-.997.779-1.805 1.741-1.805s1.741.808 1.741 1.805zM14.502 29.894c0 .997-.779 1.805-1.741 1.805s-1.741-.808-1.741-1.805c0-.997.779-1.805 1.741-1.805s1.741.808 1.741 1.805zM18.278 27.488c0 .997-.779 1.805-1.741 1.805s-1.741-.808-1.741-1.805c0-.997.779-1.805 1.741-1.805s1.741.808 1.741 1.805zM22.63 24.781c0 .997-.779 1.805-1.741 1.805s-1.741-.808-1.741-1.805c0-.997.779-1.805 1.741-1.805s1.741.808 1.741 1.805zM26.688 22.374c0 .997-.779 1.805-1.741 1.805s-1.741-.808-1.741-1.805c0-.997.779-1.805 1.741-1.805s1.741.808 1.741 1.805z"/><path fill="#f8d24e" style="fill:var(--color2,#f8d24e)" d="M20.89 30.195c0 .997-.779 1.805-1.741 1.805s-1.741-.808-1.741-1.805c0-.997.779-1.805 1.741-1.805s1.741.808 1.741 1.805zM24.659 27.789c0 .997-.779 1.805-1.741 1.805s-1.741-.808-1.741-1.805c0-.997.779-1.805 1.741-1.805s1.741.808 1.741 1.805zM29.011 25.082c0 .997-.779 1.805-1.741 1.805s-1.741-.808-1.741-1.805c0-.997.779-1.805 1.741-1.805s1.741.808 1.741 1.805zM33.075 22.675c0 .997-.779 1.805-1.741 1.805s-1.741-.808-1.741-1.805c0-.997.779-1.805 1.741-1.805s1.741.808 1.741 1.805zM28.429 30.195c0 .997-.779 1.805-1.741 1.805s-1.741-.808-1.741-1.805c0-.997.779-1.805 1.741-1.805s1.741.808 1.741 1.805zM32.205 27.789c0 .997-.779 1.805-1.741 1.805s-1.741-.808-1.741-1.805c0-.997.779-1.805 1.741-1.805s1.741.808 1.741 1.805zM36.557 25.082c0 .997-.779 1.805-1.741 1.805s-1.741-.808-1.741-1.805c0-.997.779-1.805 1.741-1.805s1.741.808 1.741 1.805zM40.614 22.675c0 .997-.779 1.805-1.741 1.805s-1.741-.808-1.741-1.805c0-.997.779-1.805 1.741-1.805s1.741.808 1.741 1.805z"/><path fill="#f8d24e" style="fill:var(--color2,#f8d24e)" d="M34.81 29.894c0 .997-.779 1.805-1.741 1.805s-1.741-.808-1.741-1.805c0-.997.779-1.805 1.741-1.805s1.741.808 1.741 1.805zM38.586 27.488c0 .997-.779 1.805-1.741 1.805s-1.741-.808-1.741-1.805c0-.997.779-1.805 1.741-1.805s1.741.808 1.741 1.805zM42.938 24.781c0 .997-.779 1.805-1.741 1.805s-1.741-.808-1.741-1.805c0-.997.779-1.805 1.741-1.805s1.741.808 1.741 1.805zM46.995 22.374c0 .997-.779 1.805-1.741 1.805s-1.741-.808-1.741-1.805c0-.997.779-1.805 1.741-1.805s1.741.808 1.741 1.805zM42.067 29.594c0 .997-.779 1.805-1.741 1.805s-1.741-.808-1.741-1.805c0-.997.779-1.805 1.741-1.805s1.741.808 1.741 1.805zM45.837 27.187c0 .997-.779 1.805-1.741 1.805s-1.741-.808-1.741-1.805c0-.997.779-1.805 1.741-1.805s1.741.808 1.741 1.805zM50.189 24.48c0 .997-.779 1.805-1.741 1.805s-1.741-.808-1.741-1.805c0-.997.779-1.805 1.741-1.805s1.741.808 1.741 1.805zM54.246 22.074c0 .997-.779 1.805-1.741 1.805s-1.741-.808-1.741-1.805c0-.997.779-1.805 1.741-1.805s1.741.808 1.741 1.805z"/><path fill="#f8d24e" style="fill:var(--color2,#f8d24e)" d="M48.736 21.773c0 .997-.779 1.805-1.741 1.805s-1.741-.808-1.741-1.805c0-.997.779-1.805 1.741-1.805s1.741.808 1.741 1.805zM52.506 19.366c0 .997-.779 1.805-1.741 1.805s-1.741-.808-1.741-1.805c0-.997.779-1.805 1.741-1.805s1.741.808 1.741 1.805zM56.858 16.659c0 .997-.779 1.805-1.741 1.805s-1.741-.808-1.741-1.805c0-.997.779-1.805 1.741-1.805s1.741.808 1.741 1.805zM60.922 14.253c0 .997-.779 1.805-1.741 1.805s-1.741-.808-1.741-1.805c0-.997.779-1.805 1.741-1.805s1.741.808 1.741 1.805z"/></symbol><symbol id="icon-dots-tablet" viewBox="0 0 356 32"><path fill="#f8d24e" style="fill:var(--color2,#f8d24e)" d="M306.022 29.57c0 1.022-.833 1.85-1.86 1.85s-1.86-.828-1.86-1.85c0-1.022.833-1.85 1.86-1.85s1.86.828 1.86 1.85zM309.741 27.26c0 1.022-.833 1.85-1.86 1.85s-1.86-.828-1.86-1.85c0-1.022.833-1.85 1.86-1.85s1.86.828 1.86 1.85zM314.384 24.482c0 1.022-.833 1.85-1.86 1.85s-1.86-.828-1.86-1.85c0-1.022.833-1.85 1.86-1.85s1.86.828 1.86 1.85zM318.099 22.173c0 1.022-.833 1.85-1.86 1.85s-1.86-.828-1.86-1.85c0-1.022.833-1.85 1.86-1.85s1.86.828 1.86 1.85zM315.775 28.647c0 1.022-.833 1.85-1.86 1.85s-1.86-.828-1.86-1.85c0-1.022.833-1.85 1.86-1.85s1.86.828 1.86 1.85zM319.49 26.333c0 1.022-.833 1.85-1.86 1.85s-1.86-.828-1.86-1.85c0-1.022.833-1.85 1.86-1.85s1.86.828 1.86 1.85zM324.132 23.559c0 1.022-.833 1.85-1.86 1.85s-1.86-.828-1.86-1.85c0-1.022.833-1.85 1.86-1.85s1.86.828 1.86 1.85zM327.847 21.25c0 1.022-.833 1.85-1.86 1.85s-1.86-.828-1.86-1.85c0-1.022.833-1.85 1.86-1.85s1.86.828 1.86 1.85zM324.132 27.719c0 1.022-.833 1.85-1.86 1.85s-1.86-.828-1.86-1.85c0-1.022.833-1.85 1.86-1.85s1.86.828 1.86 1.85zM327.847 25.41c0 1.022-.833 1.85-1.86 1.85s-1.86-.828-1.86-1.85c0-1.022.833-1.85 1.86-1.85s1.86.828 1.86 1.85zM332.494 22.637c0 1.022-.833 1.85-1.86 1.85s-1.86-.828-1.86-1.85c0-1.022.833-1.85 1.86-1.85s1.86.828 1.86 1.85zM336.209 20.322c0 1.022-.833 1.85-1.86 1.85s-1.86-.828-1.86-1.85c0-1.022.833-1.85 1.86-1.85s1.86.828 1.86 1.85z"/><path fill="#f8d24e" style="fill:var(--color2,#f8d24e)" d="M332.494 26.333c0 1.022-.833 1.85-1.86 1.85s-1.86-.828-1.86-1.85c0-1.022.833-1.85 1.86-1.85s1.86.828 1.86 1.85zM336.209 24.023c0 1.022-.833 1.85-1.86 1.85s-1.86-.828-1.86-1.85c0-1.022.833-1.85 1.86-1.85s1.86.828 1.86 1.85zM340.851 21.25c0 1.022-.833 1.85-1.86 1.85s-1.86-.828-1.86-1.85c0-1.022.833-1.85 1.86-1.85s1.86.828 1.86 1.85zM344.566 18.936c0 1.022-.833 1.85-1.86 1.85s-1.86-.828-1.86-1.85c0-1.022.833-1.85 1.86-1.85s1.86.828 1.86 1.85zM334.813 29.57c0 1.022-.833 1.85-1.86 1.85s-1.86-.828-1.86-1.85c0-1.022.833-1.85 1.86-1.85s1.86.828 1.86 1.85zM338.532 27.26c0 1.022-.833 1.85-1.86 1.85s-1.86-.828-1.86-1.85c0-1.022.833-1.85 1.86-1.85s1.86.828 1.86 1.85zM343.638 30.034c0 1.022-.833 1.85-1.86 1.85s-1.86-.828-1.86-1.85c0-1.022.833-1.85 1.86-1.85s1.86.828 1.86 1.85zM343.175 24.482c0 1.022-.833 1.85-1.86 1.85s-1.86-.828-1.86-1.85c0-1.022.833-1.85 1.86-1.85s1.86.828 1.86 1.85zM348.281 27.26c0 1.022-.833 1.85-1.86 1.85s-1.86-.828-1.86-1.85c0-1.022.833-1.85 1.86-1.85s1.86.828 1.86 1.85zM352.459 30.034c0 1.022-.833 1.85-1.86 1.85s-1.86-.828-1.86-1.85c0-1.022.833-1.85 1.86-1.85s1.86.828 1.86 1.85zM346.889 22.173c0 1.022-.833 1.85-1.86 1.85s-1.86-.828-1.86-1.85c0-1.022.833-1.85 1.86-1.85s1.86.828 1.86 1.85zM352.459 24.946c0 1.022-.833 1.85-1.86 1.85s-1.86-.828-1.86-1.85c0-1.022.833-1.85 1.86-1.85s1.86.828 1.86 1.85zM356.179 27.719c0 1.022-.833 1.85-1.86 1.85s-1.86-.828-1.86-1.85c0-1.022.833-1.85 1.86-1.85s1.86.828 1.86 1.85zM288.376 10.152c0 1.022-.833 1.85-1.86 1.85s-1.86-.828-1.86-1.85c0-1.022.833-1.85 1.86-1.85s1.86.828 1.86 1.85zM292.095 7.838c0 1.022-.833 1.85-1.86 1.85s-1.86-.828-1.86-1.85c0-1.022.833-1.85 1.86-1.85s1.86.828 1.86 1.85zM296.737 5.064c0 1.022-.833 1.85-1.86 1.85s-1.86-.828-1.86-1.85c0-1.022.833-1.85 1.86-1.85s1.86.828 1.86 1.85zM300.452 2.755c0 1.022-.833 1.85-1.86 1.85s-1.86-.828-1.86-1.85c0-1.022.833-1.85 1.86-1.85s1.86.828 1.86 1.85zM280.946 9.688c0 1.022-.833 1.85-1.86 1.85s-1.86-.828-1.86-1.85c0-1.022.833-1.85 1.86-1.85s1.86.828 1.86 1.85zM284.661 7.379c0 1.022-.833 1.85-1.86 1.85s-1.86-.828-1.86-1.85c0-1.022.833-1.85 1.86-1.85s1.86.828 1.86 1.85zM289.308 4.601c0 1.022-.833 1.85-1.86 1.85s-1.86-.828-1.86-1.85c0-1.022.833-1.85 1.86-1.85s1.86.828 1.86 1.85zM293.023 2.291c0 1.022-.833 1.85-1.86 1.85s-1.86-.828-1.86-1.85c0-1.022.833-1.85 1.86-1.85s1.86.828 1.86 1.85zM297.201 29.57c0 1.022-.833 1.85-1.86 1.85s-1.86-.828-1.86-1.85c0-1.022.833-1.85 1.86-1.85s1.86.828 1.86 1.85zM300.916 27.26c0 1.022-.833 1.85-1.86 1.85s-1.86-.828-1.86-1.85c0-1.022.833-1.85 1.86-1.85s1.86.828 1.86 1.85zM305.558 24.482c0 1.022-.833 1.85-1.86 1.85s-1.86-.828-1.86-1.85c0-1.022.833-1.85 1.86-1.85s1.86.828 1.86 1.85zM309.273 22.173c0 1.022-.833 1.85-1.86 1.85s-1.86-.828-1.86-1.85c0-1.022.833-1.85 1.86-1.85s1.86.828 1.86 1.85zM292.559 28.183c0 1.022-.833 1.85-1.86 1.85s-1.86-.828-1.86-1.85c0-1.022.833-1.85 1.86-1.85s1.86.828 1.86 1.85z"/><path fill="#f8d24e" style="fill:var(--color2,#f8d24e)" d="M296.274 25.874c0 1.022-.833 1.85-1.86 1.85s-1.86-.828-1.86-1.85c0-1.022.833-1.85 1.86-1.85s1.86.828 1.86 1.85zM300.916 23.096c0 1.022-.833 1.85-1.86 1.85s-1.86-.828-1.86-1.85c0-1.022.833-1.85 1.86-1.85s1.86.828 1.86 1.85zM304.631 20.786c0 1.022-.833 1.85-1.86 1.85s-1.86-.828-1.86-1.85c0-1.022.833-1.85 1.86-1.85s1.86.828 1.86 1.85zM294.414 21.709c0 1.022-.833 1.85-1.86 1.85s-1.86-.828-1.86-1.85c0-1.022.833-1.85 1.86-1.85s1.86.828 1.86 1.85zM298.129 19.399c0 1.022-.833 1.85-1.86 1.85s-1.86-.828-1.86-1.85c0-1.022.833-1.85 1.86-1.85s1.86.828 1.86 1.85zM302.776 16.626c0 1.022-.833 1.85-1.86 1.85s-1.86-.828-1.86-1.85c0-1.022.833-1.85 1.86-1.85s1.86.828 1.86 1.85zM306.49 14.312c0 1.022-.833 1.85-1.86 1.85s-1.86-.828-1.86-1.85c0-1.022.833-1.85 1.86-1.85s1.86.828 1.86 1.85zM294.414 11.075c0 1.022-.833 1.85-1.86 1.85s-1.86-.828-1.86-1.85c0-1.022.833-1.85 1.86-1.85s1.86.828 1.86 1.85zM298.129 8.765c0 1.022-.833 1.85-1.86 1.85s-1.86-.828-1.86-1.85c0-1.022.833-1.85 1.86-1.85s1.86.828 1.86 1.85zM302.776 5.992c0 1.022-.833 1.85-1.86 1.85s-1.86-.828-1.86-1.85c0-1.022.833-1.85 1.86-1.85s1.86.828 1.86 1.85zM306.49 3.678c0 1.022-.833 1.85-1.86 1.85s-1.86-.828-1.86-1.85c0-1.022.833-1.85 1.86-1.85s1.86.828 1.86 1.85zM293.486 17.085c0 1.022-.833 1.85-1.86 1.85s-1.86-.828-1.86-1.85c0-1.022.833-1.85 1.86-1.85s1.86.828 1.86 1.85zM297.201 14.776c0 1.022-.833 1.85-1.86 1.85s-1.86-.828-1.86-1.85c0-1.022.833-1.85 1.86-1.85s1.86.828 1.86 1.85zM301.843 12.002c0 1.022-.833 1.85-1.86 1.85s-1.86-.828-1.86-1.85c0-1.022.833-1.85 1.86-1.85s1.86.828 1.86 1.85zM305.558 9.688c0 1.022-.833 1.85-1.86 1.85s-1.86-.828-1.86-1.85c0-1.022.833-1.85 1.86-1.85s1.86.828 1.86 1.85zM274.908 8.301c0 1.022-.727 1.85-1.623 1.85s-1.623-.828-1.623-1.85c0-1.022.727-1.85 1.623-1.85s1.623.828 1.623 1.85zM278.623 5.992c0 1.022-.727 1.85-1.623 1.85s-1.623-.828-1.623-1.85c0-1.022.727-1.85 1.623-1.85s1.623.828 1.623 1.85zM283.265 3.214c0 1.022-.727 1.85-1.623 1.85s-1.623-.828-1.623-1.85c0-1.022.727-1.85 1.623-1.85s1.623.828 1.623 1.85zM281.178 10.152c.9 0 1.623-.83 1.623-1.85s-.723-1.85-1.623-1.85-1.623.83-1.623 1.85.723 1.85 1.623 1.85zM3.719 27.362c0 1.025-.833 1.855-1.86 1.855s-1.86-.831-1.86-1.855c0-1.025.833-1.855 1.86-1.855s1.86.831 1.86 1.855zM7.434 25.043c0 1.025-.833 1.855-1.86 1.855s-1.86-.831-1.86-1.855c0-1.025.833-1.855 1.86-1.855s1.86.831 1.86 1.855zM12.077 22.261c0 1.025-.833 1.855-1.86 1.855s-1.86-.831-1.86-1.855c0-1.025.833-1.855 1.86-1.855s1.86.831 1.86 1.855zM15.791 19.942c0 1.025-.833 1.855-1.86 1.855s-1.86-.831-1.86-1.855c0-1.025.833-1.855 1.86-1.855s1.86.831 1.86 1.855zM26.008 28.29c0 1.025-.833 1.855-1.86 1.855s-1.86-.831-1.86-1.855c0-1.025.833-1.855 1.86-1.855s1.86.831 1.86 1.855zM29.723 25.971c0 1.025-.833 1.855-1.86 1.855s-1.86-.831-1.86-1.855c0-1.025.833-1.855 1.86-1.855s1.86.831 1.86 1.855zM34.365 23.188c0 1.025-.833 1.855-1.86 1.855s-1.86-.831-1.86-1.855c0-1.025.833-1.855 1.86-1.855s1.86.831 1.86 1.855zM38.08 20.87c0 1.025-.833 1.855-1.86 1.855s-1.86-.831-1.86-1.855c0-1.025.833-1.855 1.86-1.855s1.86.831 1.86 1.855zM34.361 26.899c0 1.025-.727 1.855-1.623 1.855s-1.623-.831-1.623-1.855c0-1.025.727-1.855 1.623-1.855s1.623.831 1.623 1.855z"/><path fill="#f8d24e" style="fill:var(--color2,#f8d24e)" d="M38.075 24.58c0 1.025-.727 1.855-1.623 1.855s-1.623-.831-1.623-1.855c0-1.025.727-1.855 1.623-1.855s1.623.831 1.623 1.855zM42.254 22.261c0 1.025-.727 1.855-1.623 1.855s-1.623-.831-1.623-1.855c0-1.025.727-1.855 1.623-1.855s1.623.831 1.623 1.855zM46.437 19.942c0 1.025-.727 1.855-1.623 1.855s-1.623-.831-1.623-1.855c0-1.025.727-1.855 1.623-1.855s1.623.831 1.623 1.855zM51.079 16.232c0 1.025-.727 1.855-1.623 1.855s-1.623-.831-1.623-1.855c0-1.025.727-1.855 1.623-1.855s1.623.831 1.623 1.855zM41.326 18.087c0 1.025-.727 1.855-1.623 1.855s-1.623-.831-1.623-1.855c0-1.025.727-1.855 1.623-1.855s1.623.831 1.623 1.855zM17.646 28.29c0 1.025-.833 1.855-1.86 1.855s-1.86-.831-1.86-1.855c0-1.025.833-1.855 1.86-1.855s1.86.831 1.86 1.855zM21.361 25.971c0 1.025-.833 1.855-1.86 1.855s-1.86-.831-1.86-1.855c0-1.025.833-1.855 1.86-1.855s1.86.831 1.86 1.855zM26.008 23.188c0 1.025-.833 1.855-1.86 1.855s-1.86-.831-1.86-1.855c0-1.025.833-1.855 1.86-1.855s1.86.831 1.86 1.855zM29.723 20.87c0 1.025-.833 1.855-1.86 1.855s-1.86-.831-1.86-1.855c0-1.025.833-1.855 1.86-1.855s1.86.831 1.86 1.855zM10.217 27.826c0 1.025-.833 1.855-1.86 1.855s-1.86-.831-1.86-1.855c0-1.025.833-1.855 1.86-1.855s1.86.831 1.86 1.855zM13.932 25.507c0 1.025-.833 1.855-1.86 1.855s-1.86-.831-1.86-1.855c0-1.025.833-1.855 1.86-1.855s1.86.831 1.86 1.855zM18.579 22.725c0 1.025-.833 1.855-1.86 1.855s-1.86-.831-1.86-1.855c0-1.025.833-1.855 1.86-1.855s1.86.831 1.86 1.855zM22.293 20.406c0 1.025-.833 1.855-1.86 1.855s-1.86-.831-1.86-1.855c0-1.025.833-1.855 1.86-1.855s1.86.831 1.86 1.855z"/></symbol><symbol id="icon-arrow" viewBox="0 0 82 32"><path d="M81.4 17.4c.354-.36.572-.855.572-1.4s-.218-1.04-.572-1.4L68.7 1.84a2 2 0 1 0-2.823 2.818l.003.002L77.18 16 65.86 27.32a2 2 0 0 0 2.823 2.818l-.003.002 12.74-12.72zM0 18h80v-4H0v4z"/></symbol><symbol id="icon-cow" viewBox="0 0 31 32"><path d="M6.002.778c-.259.216-.977 1.73-1.237 2.56a7.692 7.692 0 0 0-.38 2.873l-.001-.02c.061 1.514.432 2.655 1.28 3.857.216.311.389.588.389.605a13.167 13.167 0 0 0-3.527.614l.093-.026c-1.635.493-2.621 1.367-2.621 2.335 0 .346.311.934.64 1.228.64.579 2.041 1.124 3.546 1.384.519.104 2.076.259 2.422.268.061 0 .087.346.087 1.444 0 .951.035 1.686.104 2.145.259 1.617 1.038 3.338 2.084 4.549l.363.415-.242.389c-.346.553-.484.969-.528 1.591-.104 1.488.822 2.811 2.621 3.745 3.425 1.773 8.735 1.081 10.733-1.41.969-1.211 1.09-2.595.32-3.857l-.242-.389.432-.519a8.981 8.981 0 0 0 1.695-3.084l.017-.064c.337-1.038.458-2.041.458-3.632 0-.718.026-1.323.061-1.323.32 0 1.877-.173 2.37-.259 1.522-.259 2.889-.804 3.546-1.384.346-.303.649-.891.649-1.237 0-1.081-1.098-1.955-3.139-2.482-.675-.173-1.929-.389-2.543-.432l-.294-.017.32-.432a8.318 8.318 0 0 0 1.065-2.189l.016-.06c.528-1.972.199-4.264-.951-6.452-.476-.908-.804-1.116-1.194-.761-.147.138-.208.329-.346 1.021a10.515 10.515 0 0 1-2.458 5.21l.01-.012-.519.571H9.962l-.45-.502a10.874 10.874 0 0 1-2.421-5.211l-.009-.064c-.147-.683-.208-.865-.355-1.012-.242-.208-.467-.199-.726.026zm.9 4.325c.372.822.839 1.591 1.384 2.301l.441.562-.458.346c-.432.329-.83.796-1.142 1.323l-.13.242-.346-.458a6.127 6.127 0 0 1-1.149-3.587c0-.71.12-1.391.34-2.026l-.013.043c.294-.977.285-.977.553-.13.13.415.363 1.038.519 1.384zm18.335-1.54a7.06 7.06 0 0 1 .407 2.465c0 1.332-.355 2.456-1.098 3.459l-.329.458-.242-.415a4.351 4.351 0 0 0-1.237-1.358 1.696 1.696 0 0 1-.337-.26 11.26 11.26 0 0 0 2.313-4.071l.022-.08c.13-.415.259-.761.277-.761.026 0 .13.259.225.562zm-3.598 5.345a3.039 3.039 0 0 1 1.639 2.055l.004.02c.069.432.216.709.407.752.087.017.666.069 1.297.112 2.223.147 3.978.623 4.722 1.271.346.303.311.562-.104.873-.83.631-2.629 1.107-4.454 1.185-1.211.052-1.47.086-1.626.259-.121.121-.138.259-.138 1.574 0 1.799-.087 2.828-.32 3.658a8.85 8.85 0 0 1-1.681 3.215l.012-.015-.303.346-.631-.372a7.598 7.598 0 0 0-2.274-.932l-.053-.01c-2.664-.64-5.622-.251-7.611 1.003l-.45.294-.294-.346a10.54 10.54 0 0 1-1.226-1.944l-.028-.063c-.545-1.254-.709-2.283-.709-4.532 0-2.188.112-2.024-1.505-2.11-2.076-.112-3.65-.484-4.644-1.116-.735-.467-.605-.882.406-1.375.977-.476 2.326-.761 4.195-.873 1.453-.095 1.488-.121 1.617-.822A2.856 2.856 0 0 1 9.83 8.806l.02-.005c.251-.069 1.635-.086 5.855-.086l5.535.017.398.173zm-3.961 15.135c1.73.424 3.018 1.211 3.572 2.197.138.225.19.458.225.813.026.45 0 .553-.173.925-.778 1.661-3.65 2.75-6.573 2.508-3.511-.294-5.829-2.249-4.912-4.177.493-1.038 2.162-2.032 3.918-2.326.294-.043.579-.087.64-.112a19.908 19.908 0 0 1 3.409.185l-.105-.012z"/><path d="M10.69 12.575c-.432.147-.726.346-1.124.735-.346.329-.372.718-.086.951.268.216.519.19.848-.095.406-.363.726-.502 1.124-.502.389-.009.692.13 1.116.502.329.285.579.311.848.086.138-.112.182-.208.182-.424 0-.225-.052-.329-.294-.579-.692-.692-1.73-.969-2.612-.675zm8.216 0c-.45.164-1.029.545-1.263.83-.225.277-.233.588 0 .822.233.259.519.242.856-.043.83-.692 1.453-.709 2.214-.069.199.173.432.303.493.303.346 0 .631-.311.631-.675 0-.233-.588-.778-1.116-1.038a2.404 2.404 0 0 0-1.834-.125l.017-.005zM11.71 26.102c-.199.199-.268.484-.173.709.086.19.208.259.692.389.216.061.311.13.389.32.095.242.104.242.649.259l.536.026v-.208c0-.294-.173-.718-.381-1.012a1.608 1.608 0 0 0-1.154-.605h-.005c-.329-.017-.415 0-.553.121zm6.729-.044c-.346.087-.856.562-.995.943-.069.164-.13.467-.138.657-.009.32.017.389.182.545.415.363.969.087.969-.502 0-.285.208-.484.588-.562.389-.069.528-.233.536-.605 0-.484-.432-.675-1.142-.476z"/></symbol><symbol id="icon-weight" viewBox="0 0 32 32"><path d="M14.178.551c-3.973.587-7.244 2.791-8.444 5.689a5.525 5.525 0 0 0-.497 2.581v-.012c.009.809.044 1.111.169 1.547.258.862.444 1.307.827 1.92l.356.578-.4.489A11.989 11.989 0 0 0 3.56 20.86c0 2.318.654 4.484 1.787 6.322l-.03-.052c.978 1.636 2.578 3.236 4.151 4.178l.462.267 6.364-.044 6.382-.062.302-.169a13.673 13.673 0 0 0 3.358-2.979l.02-.026c1.262-1.636 2.08-3.547 2.427-5.618.116-.738.116-2.933 0-3.627a12.41 12.41 0 0 0-2.482-5.645l.02.027a5.867 5.867 0 0 1-.421-.572l-.014-.024.293-.489a7.988 7.988 0 0 0 .862-1.956c.196-.72.196-2.524 0-3.236-.711-2.551-2.844-4.684-5.849-5.858-.836-.329-2.276-.676-3.209-.8-.862-.089-2.996-.071-3.804.053zm4.489 1.165c3.947.773 6.836 3.191 7.369 6.16.116.667.044 1.804-.16 2.436-.196.622-.569 1.351-1.004 1.964-.178.249-.32.533-.32.631 0 .089.151.338.373.587 1.849 2.044 2.818 4.613 2.818 7.387 0 3.156-1.218 5.92-3.556 8.089-.391.382-.96.844-1.262 1.049l-.56.373-12.204.044-.48-.302c-3.045-1.997-5.027-5.394-5.027-9.254 0-2.733.994-5.234 2.64-7.161l-.013.015c.391-.453.569-.729.569-.862 0-.107-.187-.462-.444-.827a5.57 5.57 0 0 1-1.081-3.313 5.7 5.7 0 0 1 .053-.778l-.003.029A6.23 6.23 0 0 1 8.36 4.379l.006-.005a10.75 10.75 0 0 1 5.966-2.75l.052-.005c1.013-.151 3.253-.089 4.284.098z"/><path d="M14.507 2.987c-3.022.489-5.396 2.178-6.169 4.382-.178.498-.213.684-.213 1.404 0 .711.036.898.213 1.396.107.32.311.756.453.978.382.622.551.64 1.316.178a11.738 11.738 0 0 1 3.727-1.471l.078-.014c.916-.187 2.667-.267 3.671-.142 1.556.178 3.253.738 4.604 1.538.382.222.773.409.871.409.56 0 1.28-1.618 1.28-2.871 0-2.8-2.676-5.191-6.471-5.787-.8-.133-2.578-.133-3.36 0zm3.662 1.146c1.271.267 2.436.791 3.316 1.476 1.182.907 1.813 2.187 1.716 3.413-.044.489-.222 1.156-.338 1.218-.027.018-.444-.151-.916-.382a14.096 14.096 0 0 0-3.227-1.102c-.684-.142-.978-.169-2.516-.16-1.511 0-1.831.027-2.489.16a12.74 12.74 0 0 0-3.111 1.067c-1.102.524-1.04.533-1.244-.116-.258-.844-.089-1.956.409-2.8a6.571 6.571 0 0 1 1.51-1.543l.019-.013c1.013-.693 1.893-1.013 3.804-1.351.391-.071 2.56.027 3.067.133zm-1.209 9.271c-.204.267-.204.507.009.711.142.133.284.178.791.213a6.477 6.477 0 0 1 2.782.844 7.538 7.538 0 0 1 1.932 1.837l.015.021a6.112 6.112 0 0 1 1.031 3.114l.001.015c0 .329.036.436.187.578.24.24.551.24.773 0 .169-.169.178-.213.124-.916-.303-3.559-3.161-6.362-6.718-6.577l-.02-.001-.738-.044-.169.204z"/></symbol><symbol id="icon-ice-crema" viewBox="0 0 32 32"><path d="M16.107.107c.089.213.24 1.244.24 1.573 0 .8-.293 1.538-.836 2.124-.444.48-.889.747-1.973 1.182a5.98 5.98 0 0 0-2.261 1.336l.003-.003a3.437 3.437 0 0 0-1.019 1.909l-.003.02c-.133.8 0 1.36.409 1.68l.204.16-.329.204c-.658.444-1.867 1.467-2.071 1.778-.4.604-.356 1.156.089 1.396l.222.107-.249.222c-.356.347-.436.578-.382 1.191.036.409.027.631-.071.969-.116.436-.116.444.036.747s.56.684.933.844c.178.08.187.107.231.72l.08 2.516c.018 1.031.071 1.982.107 2.089a.81.81 0 0 0 .273.363l.002.002c.391.267.658.56.827.889.196.382.409 1.324 1.067 4.56l.444 2.276.284.267c.533.533 1.564.773 3.244.773 1.698 0 2.711-.231 3.244-.764l.284-.267.418-2.116c.916-4.613.996-4.871 1.716-5.44.222-.178.436-.4.471-.498.053-.116.089-.987.133-2.311.027-1.182.062-2.347.089-2.596l.044-.444.436-.329c.542-.427.764-.8.764-1.396-.009-.693-.462-1.458-1.298-2.142l-.391-.32.196-.276c.8-1.12.293-2.667-1.209-3.698l-.453-.311.169-.178c.738-.8.862-3.173.24-4.827a6.98 6.98 0 0 0-2.265-2.831l-.019-.014a14.061 14.061 0 0 0-1.98-1.207l-.082-.037c-.027 0-.027.044 0 .107zm1.929 2.337c.356.356.782.827.951 1.067.996 1.387 1.244 3.138.649 4.418a5.481 5.481 0 0 1-1.618 1.757L18 9.698c-1.022.711-3.324 1.893-4.933 2.551-2.578 1.049-4.089 1.253-4.258.569-.062-.267.133-.471.951-1.022.747-.507 4.08-2.987 4.142-3.084-.296.106-.545.22-.783.352l.027-.014c-1.449.738-2.133.596-2.107-.427.018-.747.56-1.582 1.298-2.071.187-.116.773-.382 1.307-.596 1.76-.711 2.293-1.076 2.889-1.964a5.393 5.393 0 0 0 .823-2.157l.004-.03c.018 0 .32.293.676.64zm1.831 7.6c.489.276.996.747 1.218 1.111.382.667.178 1.333-.649 2.169a10.879 10.879 0 0 1-4.101 2.353l-.077.021c-1.564.516-3.076.756-5.227.827l-1.342.053.871.053c1.12.071 3.298 0 4.142-.133a13.05 13.05 0 0 0 5.559-2.074l-.048.03c.311-.213.631-.391.72-.391.222 0 1.191.924 1.378 1.307.107.222.133.382.116.596-.098.889-1.182 1.369-3.804 1.689-3.2.373-7.378 0-9.164-.827-.844-.382-.987-.604-.773-1.191.062-.196.08-.409.053-.729-.036-.409-.027-.462.124-.622.329-.356.889-.569 2.951-1.093.729-.178 1.707-.48 2.178-.649a26.352 26.352 0 0 0 4.375-2.224l-.109.064c.933-.622 1.067-.64 1.6-.338zm-8.889 8.196c1.404.409 2.649.533 4.96.489 1.742-.036 2.818-.142 4.356-.418l.622-.098c.08 0 .062 2.569-.018 3.244-.089.711-.284 1.271-.489 1.404-.213.142-1.289.284-2.72.364-2.933.16-5.956 0-6.898-.373-.507-.204-.56-.471-.569-2.96 0-1.653.018-1.876.098-1.849.062.027.356.116.658.196zm1.582 5.689 1.449.178-.249.284c-.329.356-.836 1.067-1.013 1.422-.204.418-.267.444-.578.276l-.267-.151-.142-.907-.187-1.049c-.062-.178-.124-.178.987-.053zm7.138-.071-.071.382-.373 2.427c-.338 2.382-.569 3.502-.773 3.876-.293.498-.978.8-2.098.889a8.802 8.802 0 0 1-1.875-.132l.053.008a8.583 8.583 0 0 1 1.278-1.571l.002-.002c.169-.089.213-.089.782.213.667.347.996.4.996.178s-.178-.436-.596-.729c-.4-.284-.533-.444-.533-.622 0-.062.187-.356.427-.676.231-.311.569-.818.747-1.12l.329-.533.302.036c.604.089.764.08.747-.053-.009-.071-.124-.267-.258-.427a1.472 1.472 0 0 1-.218-.355l-.004-.01c0-.133.622-1.298.818-1.547.178-.213.32-.32.32-.231zm-4.178.533c.329.222 1.582 1.316 1.662 1.449.036.062-1.253 2.08-1.511 2.373-.027.027-.169-.036-.302-.142a20.305 20.305 0 0 0-1.079-.748l-.086-.052-.907-.604.533-.916c.978-1.609.951-1.582 1.156-1.582.107 0 .347.098.533.222zm2.533.249c-.24.284-.436.462-.516.462-.178 0-.444-.151-.924-.498l-.4-.293.8-.044c.418-.018.836-.044.907-.062.533-.089.533-.08.133.436zm-5.066 3.218c.622.24 1.662.8 1.956 1.067.222.178.222.178.133.4-.053.116-.231.444-.409.711s-.382.604-.444.747c-.222.418-.293.444-.729.329-.48-.142-.729-.382-.862-.818-.178-.613-.471-2.329-.444-2.596.018-.107.302-.044.8.16z"/></symbol><symbol id="icon-vector" viewBox="0 0 22 32"><path d="M3.104.736c-.434.434-.702 1.034-.702 1.696s.268 1.262.702 1.696L14.976 16 3.104 27.872a2.4 2.4 0 0 0 3.394 3.391l-.001.001 13.568-13.568c.434-.434.702-1.034.702-1.696s-.268-1.262-.702-1.696L6.497.736C6.063.302 5.463.034 4.801.034S3.539.302 3.105.736z"/></symbol><symbol id="icon-facebook" viewBox="0 0 32 32"><path fill="#f8d24e" style="fill:var(--color2,#f8d24e)" d="M16 32c8.837 0 16-7.163 16-16S24.837 0 16 0 0 7.163 0 16s7.163 16 16 16z"/><path fill="#84a178" style="fill:var(--color3,#84a178)" d="M20.442 15.981h-2.607V25.6h-3.953v-9.619H12v-3.388h1.882v-2.184c0-1.562.734-4.009 3.991-4.009l2.927.009v3.285h-2.127c-.348 0-.838.179-.838.922v1.986h2.955l-.348 3.379z"/></symbol><symbol id="icon-github" viewBox="0 0 32 32"><path fill="#f8d24e" style="fill:var(--color2,#f8d24e)" d="M32 16c0 8.837-7.163 16-16 16S0 24.837 0 16 7.163 0 16 0s16 7.163 16 16z"/><path fill="#84a178" style="fill:var(--color3,#84a178)" d="M16 6.588c-5.176 0-9.412 4.235-9.412 9.412 0 4.414 3.096 8.414 7.209 9.412v-3.106a2.312 2.312 0 0 1-2.535-1.118l-.006-.012c-.216-.376-.593-.753-.988-.734l-.094-1.092c.847-.075 1.591.518 2.024 1.252.198.329.424.527.715.612.282.075.574.038.922-.085.094-.696.405-.96.649-1.318v-.009c-2.447-.367-3.426-1.666-3.821-2.692a4.245 4.245 0 0 1-.254-1.461c0-1.017.351-1.951.939-2.689l-.007.009c.019-.019.047-.075.038-.113-.424-1.261.094-2.306.104-2.409.48.141.565-.151 2.089.781l.264.16c.113.066.075.028.188.019A8.764 8.764 0 0 1 16 11.125a9.236 9.236 0 0 1 2.005.282l.085.019.075-.038c1.911-1.158 1.845-.781 2.353-.941.019.104.518 1.167.104 2.409-.056.169 1.656 1.732.715 4.254-.395 1.026-1.365 2.325-3.821 2.692.311.48.696.734.687 1.722v3.887c4.113-.998 7.209-4.998 7.209-9.412 0-5.176-4.235-9.412-9.412-9.412z"/></symbol><symbol id="icon-telegram" viewBox="0 0 32 32"><path fill="#f8d24e" style="fill:var(--color2,#f8d24e)" d="M32 16c0 8.837-7.163 16-16 16S0 24.837 0 16 7.163 0 16 0s16 7.163 16 16z"/><path fill="#84a178" style="fill:var(--color3,#84a178)" d="m12.866 18.372-.311 4.169c.452 0 .649-.179.885-.395l2.127-1.901 4.424 3.012c.8.424 1.374.207 1.591-.687l2.899-12.678c.254-1.12-.433-1.553-1.224-1.28L6.222 14.701c-1.158.414-1.139 1.026-.188 1.299l4.348 1.261L20.5 11.36c.471-.301.904-.132.555.16l-8.188 6.852z"/></symbol></defs></svg>