<svg aria-hidden="true" style="width:0;height:0;position:absolute;overflow:hidden" xmlns="http://www.w3.org/2000/svg"><defs><symbol id="logo" viewBox="0 0 69 56"><g clip-path="url('#clip0_1374_36')"><path d="m39.15 16.87-1.31-1a1 1 0 0 0-1.4.14L18.31 36.83l.28.31L23.08 33a.69.69 0 0 1 .27-1.33.68.68 0 0 1 .65.48l5.92-5.49a.51.51 0 0 1 .64 0l.3.22a.5.5 0 0 0 .67-.08l7.74-8.68a.83.83 0 0 0-.12-1.25Z"/><path d="M47.67 22.73a40.45 40.45 0 0 1-13.12 6.15A71.156 71.156 0 0 1 20.28 31c.097.71.272 1.408.52 2.08 2.72 2.46 23.2-1.74 27.2-6.6.85-1.01-.33-3.75-.33-3.75ZM23.35 33a.68.68 0 1 1 .68-.68.67.67 0 0 1-.68.68ZM4 21.29l.16-.69 2.6.59c.215.396.347.831.39 1.28.05.475.02.955-.09 1.42a3.76 3.76 0 0 1-.86 1.74 3.43 3.43 0 0 1-1.54 1 3.65 3.65 0 0 1-1.89.07 3.51 3.51 0 0 1-1.67-.88 3.3 3.3 0 0 1-.95-1.57 3.78 3.78 0 0 1 0-2c.108-.49.3-.957.57-1.38a2.92 2.92 0 0 1 1-.93l.36.55a2.86 2.86 0 0 0-1.32 1.94A3.12 3.12 0 0 0 .79 24c.135.486.401.926.77 1.27.38.367.854.62 1.37.73.5.14 1.03.14 1.53 0 .48-.158.91-.437 1.25-.81.35-.403.59-.888.7-1.41a3.07 3.07 0 0 0-.12-1.91L4 21.29ZM9.66 15l-2.33 3.11 1 1.79-.46.62-3.7-6.75.43-.59 7.53 1.62-.47.62-2-.42ZM9 14.84l-4-.9 2 3.59 2-2.69ZM9 8.55l.6-.45 3.81 5.1 3.14-2.35.38.51-3.73 2.79L9 8.55ZM15.3 4.38l.67-.3 2.64 5.78 3.57-1.62.26.58-4.24 1.93-2.9-6.37ZM28.48 6.68l.15.63-4.82 1.13-1.6-6.82L26.89.53l.14.62-4 .93.57 2.42 3.52-.83.15.62-3.53.82.6 2.53 4.14-.96ZM35.35 6.93l-1.67-2.2c-.187.01-.374.01-.56 0l-1.88.06.07 2.22h-.74l-.23-7L33 0a3.16 3.16 0 0 1 2.12.57 2.2 2.2 0 0 1 .82 1.74c.029.494-.1.985-.37 1.4a2.33 2.33 0 0 1-1.16.85l1.75 2.34-.81.03Zm-.7-3.29a1.59 1.59 0 0 0 .51-1.31 1.61 1.61 0 0 0-.59-1.28A2.43 2.43 0 0 0 33 .64l-1.9.07.12 3.5 1.86-.06a2.4 2.4 0 0 0 1.57-.51ZM40.64 5.07l-.36 2.39-.73-.11.37-2.35-2.07-5 .78.12 1.77 4.26 3-3.53.7.15-3.46 4.07ZM50.53 4.65l.87 1.13-.38.3-.87-1.16-.55 1.31-.42-.18.56-1.31-1.44.19v-.48l1.42-.16-.88-1.13.39-.3L50 4l.54-1.32.43.18-.51 1.34L51.9 4v.49l-1.37.16ZM53.87 12.71a2.77 2.77 0 0 1-.43-1.21l.59-.26c.045.396.174.778.38 1.12.224.383.515.722.86 1a2.35 2.35 0 0 0 1.3.63 1.09 1.09 0 0 0 .94-.39.9.9 0 0 0 .23-.68 1.84 1.84 0 0 0-.24-.69 10.48 10.48 0 0 0-.61-.89 9.099 9.099 0 0 1-.72-1.1 2 2 0 0 1-.26-.94c0-.37.139-.728.39-1a1.83 1.83 0 0 1 .83-.57 2 2 0 0 1 1.11 0 3.68 3.68 0 0 1 1.27.72c.308.256.58.552.81.88.213.304.372.642.47 1l-.57.3a3.52 3.52 0 0 0-.44-.94 3.608 3.608 0 0 0-.67-.69 2.22 2.22 0 0 0-1.29-.61 1.08 1.08 0 0 0-.94.41.86.86 0 0 0-.23.68c.024.252.106.495.24.71.14.23.34.53.61.89.268.34.509.702.72 1.08a2 2 0 0 1 .27.94c.001.37-.138.728-.39 1a1.78 1.78 0 0 1-.84.57 1.92 1.92 0 0 1-1.11 0 3.711 3.711 0 0 1-1.28-.72 4.551 4.551 0 0 1-1-1.24ZM63.93 14.17l-1.41-2 .52-.37 3.25 4.64-.52.37-1.41-2-5.22 3.65-.42-.61 5.21-3.68ZM61.69 22.39a3.32 3.32 0 0 1 1-1.56 3.55 3.55 0 0 1 1.64-.83 3.62 3.62 0 0 1 1.88.07 3.56 3.56 0 0 1 1.53 1 3.75 3.75 0 0 1 .85 1.74 3.809 3.809 0 0 1 0 1.93 3.42 3.42 0 0 1-1 1.56 3.71 3.71 0 0 1-3.57.78 3.35 3.35 0 0 1-1.53-1 3.76 3.76 0 0 1-.85-1.73 3.851 3.851 0 0 1 .05-1.96ZM63 25.57c.334.38.767.66 1.25.81a3.1 3.1 0 0 0 2.9-.64c.37-.34.642-.77.79-1.25a3.22 3.22 0 0 0-.65-2.94 2.849 2.849 0 0 0-1.29-.81 3 3 0 0 0-1.54 0 2.76 2.76 0 0 0-1.36.69 2.79 2.79 0 0 0-.79 1.26 3 3 0 0 0 0 1.55 2.9 2.9 0 0 0 .69 1.33ZM60.93 34l2.59-1c0-.18.06-.36.11-.55l.49-1.81-2.12-.55.19-.71 6.76 1.81-.68 2.53a3.17 3.17 0 0 1-1.16 1.86 2.16 2.16 0 0 1-1.9.28 2.17 2.17 0 0 1-1.71-2.11l-2.76 1 .19-.75Zm3.35.28a1.8 1.8 0 0 0 2.51.67 2.39 2.39 0 0 0 .85-1.41l.48-1.8-3.39-.91-.48 1.8a2.41 2.41 0 0 0 .03 1.65ZM57.34 40.44l-.51-.39 3-3.95 5.58 4.23-2.9 3.83-.51-.39 2.45-3.23-2-1.51-2.19 2.89-.5-.38L62 38.65l-2.07-1.57-2.59 3.36ZM55 48.41l-1.43.08v-.48L55 48l-.77-1.19.39-.25.76 1.2.62-1.34.43.23-.68 1.26 1.43-.08v.49h-1.45l.77 1.19-.39.25-.76-1.2-.66 1.3-.42-.24.73-1.21ZM42 47.61l1.21.67a3.112 3.112 0 0 1 2-1.58 3.161 3.161 0 0 1 1.23-.13 2 2 0 0 1 1 .36c.267.2.463.48.56.8.12.395.1.82-.06 1.2a5 5 0 0 1-1 1.39c.33.177.636.396.91.65.189.195.33.431.41.69a1.329 1.329 0 0 1-.26 1.17 1.92 1.92 0 0 1-1.12.77c-.4.152-.84.152-1.24 0a1.25 1.25 0 0 1-.72-.85 1.36 1.36 0 0 1 .07-1c.23-.455.53-.87.89-1.23l-2.41-1.34a4.762 4.762 0 0 0-.06 1.43h-.61a4.783 4.783 0 0 1 .2-1.74l-1.26-.7.26-.56Zm1.74 1 2.65 1.47c.347-.332.635-.72.85-1.15.11-.29.11-.61 0-.9a1.08 1.08 0 0 0-.7-.75 2 2 0 0 0-1.28 0 2.4 2.4 0 0 0-1.56 1.3l.04.03Zm3.76 4a.9.9 0 0 0 .08-.74 1.23 1.23 0 0 0-.32-.52 4.32 4.32 0 0 0-.83-.55 5.22 5.22 0 0 0-.79 1 1 1 0 0 0-.08.74.841.841 0 0 0 .44.53c.255.096.536.096.79 0a1.19 1.19 0 0 0 .67-.47l.04.01ZM29.81 55.32l.14-7h.71l-.11 5.6 2.84-4.66h.35L36.4 54l.1-5.57h.71l-.13 7h-.61l-2.94-5.23-3.11 5.13-.61-.01ZM26.33 48a3.41 3.41 0 0 1 .91 3.46 3.56 3.56 0 0 1-.95 1.63 3.36 3.36 0 0 1-1.61.88 3.88 3.88 0 0 1-1.94-.06 3.76 3.76 0 0 1-1.68-.91 3.36 3.36 0 0 1-.93-1.58 3.69 3.69 0 0 1 1-3.52 3.45 3.45 0 0 1 1.58-.9 3.849 3.849 0 0 1 1.93.06 3.769 3.769 0 0 1 1.69.94Zm-3.41-.35a2.67 2.67 0 0 0-1.29.72 2.89 2.89 0 0 0-.76 1.33c-.14.5-.14 1.03 0 1.53.118.487.371.93.73 1.28a3.07 3.07 0 0 0 1.35.77 3.14 3.14 0 0 0 1.55 0c.49-.12.938-.369 1.3-.72a2.94 2.94 0 0 0 .76-1.33 2.88 2.88 0 0 0 0-1.54 2.81 2.81 0 0 0-.74-1.28 3 3 0 0 0-1.36-.76 2.89 2.89 0 0 0-1.54 0ZM15.35 43l.27 2.75c.171.073.338.157.5.25l1.63.94 1.1-1.94.65.37L16 51.4l-2.28-1.31a3.18 3.18 0 0 1-1.5-1.6 2.2 2.2 0 0 1 .22-1.9c.232-.438.6-.79 1.05-1a2.32 2.32 0 0 1 1.44-.11l-.29-2.94.71.46Zm-1.14 3.16a1.803 1.803 0 0 0-1.35 1.533 1.8 1.8 0 0 0 .06.717c.234.518.64.938 1.15 1.19l1.61.93 1.75-3-1.61-.93a2.47 2.47 0 0 0-1.61-.49v.05ZM9.43 38.31l.45-.45 3.45 3.55-5 4.88L5 42.85l.46-.45 2.83 2.91L10 43.58 7.52 41l.48-.46 2.53 2.6 1.86-1.81-2.96-3.02ZM2 34.38 2.24 33l.47.07-.27 1.42L3.77 34l.16.44-1.35.46 1.11.94-.32.36-1.07-1-.25 1.42-.48-.09.28-1.42-1.34.48-.15-.39 1.34-.47-1.11-.93.33-.36 1.08.94Z"/></g><defs><clipPath id="clip0_1374_36"><path fill="#fff" d="M0 0h68.93v55.46H0z"/></clipPath></defs></symbol><symbol id="instagram" viewBox="0 0 32 32"><path d="M31.912 9.408c-.075-1.7-.35-2.869-.744-3.882a7.803 7.803 0 0 0-1.85-2.838A7.867 7.867 0 0 0 26.486.844C25.467.45 24.304.175 22.604.1 20.891.019 20.347 0 16.003 0s-4.888.019-6.595.094c-1.7.075-2.869.35-3.882.744a7.803 7.803 0 0 0-2.838 1.85A7.867 7.867 0 0 0 .844 5.52C.45 6.539.175 7.702.1 9.402c-.081 1.713-.1 2.257-.1 6.601s.019 4.888.094 6.595c.075 1.7.35 2.869.744 3.882a7.895 7.895 0 0 0 1.85 2.838 7.867 7.867 0 0 0 2.832 1.844c1.019.394 2.182.669 3.882.744 1.706.075 2.25.094 6.595.094s4.888-.019 6.595-.094c1.7-.075 2.869-.35 3.882-.744a8.184 8.184 0 0 0 4.682-4.682c.394-1.019.669-2.182.744-3.882.075-1.707.094-2.251.094-6.595s-.006-4.888-.081-6.595zm-2.881 13.065c-.069 1.563-.331 2.407-.55 2.969a5.31 5.31 0 0 1-3.038 3.038c-.563.219-1.413.481-2.969.55-1.688.075-2.194.094-6.464.094s-4.782-.019-6.464-.094c-1.563-.069-2.407-.331-2.969-.55a4.926 4.926 0 0 1-1.838-1.194 4.974 4.974 0 0 1-1.194-1.838c-.219-.563-.481-1.413-.55-2.969-.075-1.688-.094-2.194-.094-6.464s.019-4.782.094-6.464c.069-1.563.331-2.407.55-2.969a4.868 4.868 0 0 1 1.2-1.838A4.974 4.974 0 0 1 6.583 3.55c.563-.219 1.413-.481 2.969-.55 1.688-.075 2.194-.094 6.464-.094 4.276 0 4.782.019 6.464.094 1.563.069 2.407.331 2.969.55a4.914 4.914 0 0 1 1.838 1.194 4.974 4.974 0 0 1 1.194 1.838c.219.563.481 1.413.55 2.969.075 1.688.094 2.194.094 6.464s-.019 4.77-.094 6.458z"/><path d="M16.059 7.783c-4.538 0-8.22 3.682-8.22 8.22s3.682 8.22 8.22 8.22c4.539 0 8.22-3.682 8.22-8.22s-3.682-8.22-8.22-8.22zm0 13.552a5.333 5.333 0 0 1 0-10.664 5.333 5.333 0 0 1 0 10.664zM26.524 7.458a1.919 1.919 0 1 1-3.838 0 1.919 1.919 0 0 1 3.838 0z"/></symbol><symbol id="twitter" viewBox="0 0 32 32"><path d="M32 6.078c-1.19.522-2.458.868-3.78 1.036a6.523 6.523 0 0 0 2.886-3.626 13.11 13.11 0 0 1-4.16 1.588A6.574 6.574 0 0 0 22.154 3c-3.632 0-6.556 2.948-6.556 6.562 0 .52.044 1.02.152 1.496-5.454-.266-10.28-2.88-13.522-6.862a6.605 6.605 0 0 0-.898 3.316 6.57 6.57 0 0 0 2.914 5.452 6.479 6.479 0 0 1-2.964-.808v.072c0 3.188 2.274 5.836 5.256 6.446a6.548 6.548 0 0 1-1.72.216 5.8 5.8 0 0 1-1.242-.112c.85 2.598 3.262 4.508 6.13 4.57a13.182 13.182 0 0 1-8.134 2.798c-.538 0-1.054-.024-1.57-.09A18.469 18.469 0 0 0 10.064 29c12.072 0 18.672-10 18.672-18.668 0-.29-.01-.57-.024-.848A13.087 13.087 0 0 0 32 6.078z"/></symbol><symbol id="facebook" viewBox="0 0 32 32"><path d="M21.33 5.313h2.921V.225C23.747.156 22.014 0 19.995 0c-4.212 0-7.097 2.649-7.097 7.519V12H8.25v5.688h4.648V32h5.699V17.689h4.46l.708-5.688h-5.169V8.082c.001-1.644.444-2.769 2.735-2.769z"/></symbol><symbol id="linkedin" viewBox="0 0 32 32"><path d="M31.992 32v-.001H32V20.263c0-5.741-1.236-10.164-7.948-10.164-3.227 0-5.392 1.771-6.276 3.449h-.093v-2.913h-6.364v21.364h6.627V21.42c0-2.785.528-5.479 3.977-5.479 3.399 0 3.449 3.179 3.449 5.657v10.401h6.62zM.528 10.636h6.635V32H.528V10.636zM3.843 0C1.722 0 0 1.721 0 3.843s1.721 3.879 3.843 3.879c2.121 0 3.843-1.757 3.843-3.879A3.846 3.846 0 0 0 3.843 0z"/></symbol><symbol id="map-pin" viewBox="0 0 32 32"><path stroke-linejoin="round" stroke-linecap="round" stroke-width="1.333" d="M26.667 13.818C26.667 21.454 16 28 16 28S5.333 21.455 5.333 13.818C5.333 8.396 10.109 4 16 4s10.667 4.396 10.667 9.818z"/><path stroke-linejoin="round" stroke-linecap="round" stroke-width="1.333" d="M16 18.667a4 4 0 1 0 0-8 4 4 0 0 0 0 8z"/></symbol><symbol id="phone" viewBox="0 0 32 32"><path stroke-linejoin="round" stroke-linecap="round" stroke-width="1.333" d="M26.666 21.337v3.218a2.146 2.146 0 0 1-2.338 2.145 21.239 21.239 0 0 1-9.257-3.293 20.914 20.914 0 0 1-6.436-6.436 21.221 21.221 0 0 1-3.293-9.3 2.144 2.144 0 0 1 2.134-2.338h3.218a2.144 2.144 0 0 1 2.145 1.845c.136 1.03.388 2.041.751 3.014a2.144 2.144 0 0 1-.483 2.263l-1.362 1.362a17.162 17.162 0 0 0 6.436 6.436l1.362-1.362a2.146 2.146 0 0 1 2.263-.483c.973.363 1.984.615 3.014.751a2.144 2.144 0 0 1 1.845 2.177z"/></symbol><symbol id="mail" viewBox="0 0 32 32"><path stroke-linejoin="round" stroke-linecap="round" stroke-width="1.333" d="M6.4 6.667h19.2c1.32 0 2.4 1.05 2.4 2.333v14c0 1.283-1.08 2.333-2.4 2.333H6.4C5.08 25.333 4 24.283 4 23V9c0-1.283 1.08-2.333 2.4-2.333z"/><path stroke-linejoin="round" stroke-linecap="round" stroke-width="1.333" d="m26.667 9.333-10.667 8-10.667-8"/></symbol><symbol id="logo-1" viewBox="0 0 57 32"><path d="m20.267 3.733 3.738 3.538-6.938-.004v17.166H35.2v-6.564l3.733 3.534V3.732H20.266zm14.769 13.722L24.439 7.423h10.597v10.032zm-3.29 4.468h-11.81V10.378h.835v10.764h10.975v.782zm-9.021 4.797-.436.898-.436-.898h-.366l.637 1.198v.698h.331v-.698l.635-1.198h-.365zm.548 1.895.154-.441h.734l.155.441h.344l-.717-1.896h-.296l-.716 1.896h.342zm.521-1.493.275.786h-.549l.275-.786zm1.737.741a.429.429 0 0 0-.072.241c0 .16.056.29.168.389s.263.148.451.148.349-.051.484-.152l.107.126h.367l-.279-.329a.95.95 0 0 0 .164-.574h-.275a.758.758 0 0 1-.079.348l-.366-.432.129-.094c.091-.066.157-.132.197-.198s.06-.14.06-.219c0-.12-.044-.22-.133-.301s-.201-.122-.339-.122c-.153 0-.274.043-.365.13s-.135.203-.135.352c0 .061.014.124.043.189s.081.144.155.237a1.12 1.12 0 0 0-.283.262zm.855.419a.485.485 0 0 1-.299.107c-.095 0-.17-.027-.227-.082s-.085-.126-.085-.214c0-.102.052-.192.156-.271l.04-.029.414.488zm-.34-.84c-.089-.11-.134-.202-.134-.275 0-.063.018-.116.055-.158s.085-.063.147-.063c.057 0 .105.018.142.053s.056.077.056.126a.235.235 0 0 1-.081.184l-.04.033-.145.099zm3.086 1.03a.689.689 0 0 0 .224-.474h-.328c-.017.135-.059.232-.124.29s-.162.087-.292.087c-.142 0-.249-.054-.323-.161s-.109-.264-.109-.469v-.168c.002-.202.041-.355.117-.46s.188-.158.331-.158c.123 0 .217.03.28.091s.104.158.12.294h.328c-.021-.207-.095-.368-.223-.482s-.296-.171-.505-.171a.718.718 0 0 0-.683.426 1.116 1.116 0 0 0-.095.473v.177c.003.174.035.328.098.46s.151.234.266.306a.748.748 0 0 0 .4.107c.216 0 .389-.056.52-.169zm1.936-.266c.064-.141.096-.304.096-.49v-.105c-.001-.185-.034-.347-.099-.486a.726.726 0 0 0-.687-.432.757.757 0 0 0-.411.113c-.119.075-.211.183-.277.324s-.098.305-.098.49v.107c.001.181.034.342.099.48s.159.246.279.322a.764.764 0 0 0 .411.112c.155 0 .293-.037.411-.112s.212-.183.276-.323zm-.352-1.071c.08.112.12.273.12.483v.099c0 .214-.04.376-.119.487s-.19.167-.336.167c-.144 0-.257-.057-.339-.171s-.121-.275-.121-.483v-.109c.002-.204.043-.362.122-.473s.192-.168.335-.168c.146 0 .258.056.337.168z"/></symbol><symbol id="logo-2" viewBox="0 0 57 32"><path d="M26.727 3.165h-.073a7.542 7.542 0 0 0-.336-.012h-.243c-.212 0-.428.005-.642.016a.4.4 0 0 0-.049 0c-1.944.11-3.848.596-5.609 1.431l-.231.111V16.52l.54-.183a20.64 20.64 0 0 1 1.5-.445 18.34 18.34 0 0 1 4.317-.574v1.551c-.193.001-.38.007-.568.016h-.045a17.207 17.207 0 0 0-3.322.51 16.858 16.858 0 0 0-3.957 1.542V3.792a15.847 15.847 0 0 1 4.151-1.688c1.278-.33 2.593-.5 3.913-.504h.228c.273.007.538.019.788.038.658.046 1.31.15 1.95.311v1.527a12.05 12.05 0 0 0-1.889-.285l-.039-.003c-.132-.011-.263-.022-.386-.022zm2.688 1.561c.339.026.689.038 1.044.038a16.75 16.75 0 0 0 4.114-.528 16.958 16.958 0 0 0 3.956-1.543v14.875a15.88 15.88 0 0 1-4.153 1.688 15.948 15.948 0 0 1-3.913.503c-1 .008-1.997-.11-2.968-.35V4.438c.229.053.465.102.706.142.394.066.81.115 1.214.145zm7.57.115-.54.182c-.497.167-.997.316-1.5.449a18.23 18.23 0 0 1-4.483.575c-.352 0-.676-.01-.989-.03l-.43-.028v12.148l.37.033c.343.03.696.045 1.052.045a14.364 14.364 0 0 0 3.531-.457c.95-.238 1.874-.57 2.759-.991l.231-.111V4.843zM19.06 24.113a.788.788 0 0 0-.6-.243.895.895 0 0 0-.347.065.778.778 0 0 0-.444.449.893.893 0 0 0-.062.335v2.023a.94.94 0 0 0 .08.415.718.718 0 0 0 .48.415c.098.028.2.042.302.042a.855.855 0 0 0 .838-.851v-.226h-.529v.18a.458.458 0 0 1-.031.18.315.315 0 0 1-.077.114.38.38 0 0 1-.222.077.266.266 0 0 1-.249-.109.479.479 0 0 1-.07-.271v-1.887a.643.643 0 0 1 .065-.302c.027-.043.066-.077.112-.098s.097-.03.147-.024a.28.28 0 0 1 .236.114c.059.078.09.173.088.271v.175h.524v-.206a.953.953 0 0 0-.242-.639zM22.202 24.09a.92.92 0 0 0-1.197 0 .82.82 0 0 0-.205.283.959.959 0 0 0-.077.392v1.941a.932.932 0 0 0 .077.397.791.791 0 0 0 .205.271.837.837 0 0 0 .279.171.897.897 0 0 0 .918-.171.849.849 0 0 0 .2-.271.934.934 0 0 0 .077-.397v-1.941a.943.943 0 0 0-.077-.392.867.867 0 0 0-.2-.283zm-.247 2.616a.355.355 0 0 1-.105.28.386.386 0 0 1-.498 0 .352.352 0 0 1-.105-.28v-1.941a.355.355 0 0 1 .105-.28.386.386 0 0 1 .498 0 .352.352 0 0 1 .105.28v1.941zM26.329 27.573v-3.674h-.509l-.668 1.945h-.009l-.673-1.945h-.503v3.674h.525v-2.235h.009l.514 1.58h.262l.518-1.58h.009v2.235h.525zM29.311 24.157a.727.727 0 0 0-.297-.201 1.168 1.168 0 0 0-.38-.057h-.78v3.674h.523v-1.435h.27a.964.964 0 0 0 .472-.1.759.759 0 0 0 .287-.281.875.875 0 0 0 .12-.32c.021-.138.03-.278.028-.418a2.107 2.107 0 0 0-.051-.525.785.785 0 0 0-.193-.338zm-.27 1.12a.45.45 0 0 1-.049.191.296.296 0 0 1-.135.129.538.538 0 0 1-.247.046h-.239v-1.249h.27a.506.506 0 0 1 .236.046.3.3 0 0 1 .123.136.537.537 0 0 1 .046.205v.244c0 .085.005.174 0 .252h-.005zM31.791 23.899h-.429l-.809 3.674h.523l.154-.789h.714l.154.789h.524l-.83-3.674zm-.483 2.384.258-1.332h.009l.256 1.332h-.524zM35.173 26.112h-.009l-.791-2.213h-.503v3.674h.523v-2.209h.011l.8 2.209h.492v-3.674h-.523v2.213zM38.372 23.899l-.421 1.461h-.011l-.421-1.461h-.554l.719 2.121v1.553h.524V26.02l.719-2.121h-.554zM17.6 28.61h.252v.708h.171v-.708h.251v-.145h-.675v.145zM19.721 28.465l-.331.853h.182l.07-.194h.34l.073.194h.186l-.339-.853h-.182zm-.027.516.116-.316.116.316h-.232zM21.818 29.004h.197v.11a.332.332 0 0 1-.202.072c-.034.002-.069-.004-.1-.019s-.059-.036-.081-.063a.352.352 0 0 1-.063-.222c0-.19.082-.285.246-.285.043-.004.086.007.121.032s.061.062.072.104l.169-.033c-.036-.167-.156-.251-.362-.251a.426.426 0 0 0-.298.11.413.413 0 0 0-.122.328.465.465 0 0 0 .109.32.408.408 0 0 0 .324.125.511.511 0 0 0 .362-.136v-.336h-.37v.144zM23.959 28.465h-.173v.853h.598v-.145h-.425v-.708zM25.769 28.465h-.173v.853h.173v-.853zM27.539 29.035l-.349-.57h-.167v.853h.161v-.557l.343.557h.171v-.853h-.158v.57zM29.14 28.943h.425v-.145h-.425v-.187h.457v-.145h-.63v.853h.648v-.145h-.475v-.231zM33.02 28.802h-.336v-.336h-.171v.853h.171v-.373h.336v.373h.171v-.853h-.171v.336zM34.629 28.943h.426v-.145h-.426v-.187h.459v-.145h-.63v.853h.646v-.145h-.475v-.231zM36.812 28.943c.148-.023.224-.102.224-.237a.203.203 0 0 0-.084-.189.479.479 0 0 0-.25-.05h-.362v.853h.171v-.357h.034a.231.231 0 0 1 .107.019.181.181 0 0 1 .061.062l.186.271h.205L37 29.148a.6.6 0 0 0-.189-.205zm-.172-.118h-.127v-.214h.135a.445.445 0 0 1 .174.02c.012.011.022.025.029.04a.116.116 0 0 1-.004.097.114.114 0 0 1-.032.037.486.486 0 0 1-.174.02zM38.458 28.943h.425v-.145h-.425v-.187h.459v-.145h-.631v.853h.648v-.145h-.475v-.231z"/></symbol><symbol id="logo-3" viewBox="0 0 57 32"><path d="M19.417 26.187c.008 0 .017.002.025.005s.015.007.02.013l.116.111a.955.955 0 0 1-.327.211 1.299 1.299 0 0 1-.464.076 1.213 1.213 0 0 1-.436-.071.942.942 0 0 1-.329-.2.878.878 0 0 1-.212-.308 1.02 1.02 0 0 1-.074-.396.91.91 0 0 1 .305-.705 1.06 1.06 0 0 1 .349-.201c.143-.048.296-.072.449-.071.143-.003.285.019.417.064.115.043.221.104.313.178l-.097.119a.085.085 0 0 1-.025.021.066.066 0 0 1-.039.009.086.086 0 0 1-.042-.013l-.052-.032-.073-.04a.818.818 0 0 0-.229-.071 1.11 1.11 0 0 0-.173-.013.952.952 0 0 0-.323.053.683.683 0 0 0-.417.387.81.81 0 0 0-.06.313.795.795 0 0 0 .06.318.68.68 0 0 0 .402.383.867.867 0 0 0 .3.05c.059.001.119-.003.177-.01a.69.69 0 0 0 .384-.163.09.09 0 0 1 .055-.02zM22.776 25.629a.974.974 0 0 1-.078.393c-.047.114-.122.218-.219.305s-.214.155-.344.2a1.42 1.42 0 0 1-.884 0 1.027 1.027 0 0 1-.342-.201.904.904 0 0 1-.221-.308 1.022 1.022 0 0 1 0-.787.94.94 0 0 1 .221-.31c.097-.084.214-.15.342-.193.284-.096.6-.096.884 0 .129.046.246.114.343.201a.914.914 0 0 1 .298.699zm-.306 0a.84.84 0 0 0-.055-.316.653.653 0 0 0-.402-.385 1.025 1.025 0 0 0-.643 0 .683.683 0 0 0-.246.149.63.63 0 0 0-.157.236.927.927 0 0 0 0 .632.643.643 0 0 0 .403.384c.207.067.435.067.643 0a.698.698 0 0 0 .246-.148.662.662 0 0 0 .156-.236.82.82 0 0 0 .055-.316zM25.067 25.96l.03.071.033-.071a.68.68 0 0 1 .038-.07l.743-1.174c.015-.02.028-.033.042-.037a.207.207 0 0 1 .061-.006h.22v1.909h-.26V25.119a.726.726 0 0 1 0-.066l-.747 1.19c-.009.018-.025.033-.044.043s-.041.016-.064.016h-.042c-.023 0-.045-.005-.064-.016s-.034-.026-.044-.044l-.769-1.198v1.533h-.252v-1.905h.22a.207.207 0 0 1 .061.006.087.087 0 0 1 .041.037l.759 1.175a.418.418 0 0 1 .038.068zM27.864 25.865v.715h-.291v-1.906h.649c.122-.002.244.012.362.042a.724.724 0 0 1 .256.119.492.492 0 0 1 .145.187.576.576 0 0 1 .049.244.54.54 0 0 1-.211.435.752.752 0 0 1-.257.126 1.25 1.25 0 0 1-.35.044l-.352-.005zm0-.205h.352a.808.808 0 0 0 .225-.029.52.52 0 0 0 .163-.082.358.358 0 0 0 .134-.286c.003-.053-.007-.106-.029-.155s-.057-.094-.102-.13a.624.624 0 0 0-.391-.102h-.352v.786zM31.772 26.583h-.23a.109.109 0 0 1-.064-.018.123.123 0 0 1-.038-.044l-.198-.461h-.993l-.205.461a.107.107 0 0 1-.101.062h-.23l.872-1.909h.302l.884 1.909zm-1.439-.709h.82l-.346-.777a1.276 1.276 0 0 1-.065-.179l-.034.1a.98.98 0 0 1-.032.081l-.343.776zM33.029 24.682c.017.008.032.02.044.034l1.272 1.439V24.673h.26v1.909h-.145a.136.136 0 0 1-.06-.011.165.165 0 0 1-.047-.035l-1.271-1.438a.726.726 0 0 1 0 .066v1.419h-.26v-1.909h.154a.15.15 0 0 1 .052.009zM36.748 25.823v.758h-.291v-.758l-.804-1.15h.26a.114.114 0 0 1 .063.016.159.159 0 0 1 .039.043l.503.742a.717.717 0 0 1 .088.169l.038-.082a.745.745 0 0 1 .049-.087l.496-.747a.18.18 0 0 1 .038-.04.098.098 0 0 1 .063-.019h.263l-.806 1.155zM24.923 21.47c.127.014.255.025.384.035 1.962-.763 3.622-2.011 4.772-3.588s1.74-3.415 1.695-5.282l-2.162-1.879c.44 1.988.234 4.043-.594 5.935s-2.245 3.547-4.094 4.779z"/><path d="m24.151 21.383.058.01c1.975-1.228 3.482-2.942 4.323-4.921s.981-4.133.4-6.181l-3.08-2.676c1.246 2.2 1.747 4.661 1.446 7.098s-1.393 4.75-3.147 6.67zM34.596 14.841c-.523 2.052-1.794 3.902-3.624 5.276-.534.404-1.111.763-1.722 1.074 1.49-.38 2.859-1.053 4.003-1.966s2.03-2.042 2.592-3.3l-1.249-1.084z"/><path d="m34.106 14.539-1.778-1.545c-.034 1.762-.61 3.483-1.669 4.986s-2.562 2.731-4.352 3.559h.009c.399 0 .798-.021 1.194-.062 1.673-.593 3.151-1.537 4.303-2.748s1.94-2.65 2.295-4.189zM24.409 6.486 22.287 4.64c-1.897.637-3.528 1.756-4.68 3.212s-1.772 3.179-1.778 4.946c.007 1.952.763 3.846 2.149 5.383s3.322 2.628 5.501 3.101c1.946-2.06 3.085-4.605 3.252-7.266s-.647-5.299-2.323-7.53zM39.008 14.255c-.008-2.316-1.07-4.535-2.955-6.173s-4.439-2.561-7.105-2.567a11.3 11.3 0 0 0-3.602.582l12.99 11.286a7.647 7.647 0 0 0 .672-3.128z"/></symbol><symbol id="logo-4" viewBox="0 0 57 32"><path d="M12.878 11.255h-.002c-1.279 0-2.316.921-2.316 2.058v.001c0 1.137 1.037 2.058 2.316 2.058h.002c1.279 0 2.316-.921 2.316-2.058v-.001c0-1.137-1.037-2.058-2.316-2.058zM29.971 10.597c-.004-1.579-.711-3.092-1.967-4.208s-2.958-1.745-4.735-1.749c-1.777.003-3.48.631-4.737 1.748s-1.964 2.63-1.968 4.209v8.706s13.405-1.327 13.406-8.704v-.001zM5.867 22.16c.003 1.098.496 2.151 1.369 2.928s2.058 1.215 3.294 1.218c1.236-.003 2.42-.441 3.294-1.218s1.366-1.829 1.37-2.927v-6.057s-9.327.924-9.327 6.056zm4.663 1.085c-.242 0-.478-.064-.678-.183s-.357-.289-.45-.487c-.092-.198-.117-.417-.069-.627s.163-.404.334-.556c.171-.152.388-.255.625-.297s.482-.02.706.062c.223.082.414.221.548.4s.206.388.206.603c.001.143-.031.284-.092.417s-.151.252-.264.353c-.114.101-.248.182-.397.236s-.308.083-.468.083v-.004zM19.956 22.647h-.9v.93h-.469v-2.275h1.481v.38h-1.012v.588h.9v.378zm2.253-.156c0 .224-.04.42-.119.589a.893.893 0 0 1-.847.528c-.189 0-.357-.045-.505-.136s-.262-.22-.344-.387a1.344 1.344 0 0 1-.123-.581v-.112c0-.224.04-.421.12-.591a.895.895 0 0 1 .848-.529c.189 0 .358.046.505.137a.888.888 0 0 1 .342.392c.081.17.122.366.122.589v.102zm-.475-.103c0-.238-.043-.42-.128-.544s-.207-.186-.366-.186a.416.416 0 0 0-.364.184c-.085.122-.129.301-.13.538v.111c0 .232.043.412.128.541s.208.192.369.192a.415.415 0 0 0 .363-.184c.084-.124.127-.304.128-.541v-.111zm1.996.592a.237.237 0 0 0-.094-.203 1.203 1.203 0 0 0-.337-.15 2.418 2.418 0 0 1-.386-.156c-.258-.14-.387-.328-.387-.564 0-.123.034-.232.103-.328a.688.688 0 0 1 .298-.227c.13-.054.276-.081.438-.081.163 0 .307.03.434.089a.662.662 0 0 1 .401.614h-.469c0-.104-.033-.185-.098-.242s-.158-.087-.277-.087a.426.426 0 0 0-.267.073.225.225 0 0 0-.095.191c0 .074.037.136.111.186.075.05.185.097.33.141.267.08.461.18.583.298s.183.267.183.444a.55.55 0 0 1-.223.464c-.149.111-.349.167-.602.167-.175 0-.334-.032-.478-.095-.144-.065-.254-.153-.33-.264s-.113-.241-.113-.388h.47c0 .251.15.377.45.377a.442.442 0 0 0 .261-.067.222.222 0 0 0 .094-.191zm2.501-1.298h-.697v1.895h-.469v-1.895h-.687v-.38h1.853v.38zm1.638.909h-.9v.609h1.056v.377H26.5v-2.275h1.522v.38h-1.053v.542h.9v.367zm1.273.153h-.373v.833H28.3v-2.275h.845c.269 0 .476.06.622.18s.219.289.219.508a.697.697 0 0 1-.102.389.689.689 0 0 1-.305.247l.492.93v.022h-.503l-.427-.833zm-.373-.379h.378c.118 0 .209-.03.273-.089a.321.321 0 0 0 .097-.248.343.343 0 0 0-.092-.253c-.06-.061-.154-.092-.28-.092h-.377v.683zm2.84.41v.802h-.469v-2.275h.887c.171 0 .321.031.45.094a.703.703 0 0 1 .405.659.655.655 0 0 1-.23.528c-.152.128-.363.192-.633.192h-.411zm0-.379h.419c.124 0 .218-.029.283-.088.066-.058.098-.142.098-.25 0-.111-.033-.202-.098-.27s-.156-.104-.272-.106h-.43v.714zm2.966.195h-.9v.609h1.056v.377h-1.525v-2.275h1.522v.38h-1.053v.542h.9v.367zm2.175-.909h-.697v1.895h-.469v-1.895h-.688v-.38h1.853v.38zm1.637.909h-.9v.609h1.056v.377h-1.525v-2.275h1.522v.38h-1.053v.542h.9v.367zm1.274.153h-.373v.833h-.469v-2.275h.845c.269 0 .476.06.622.18s.219.289.219.508a.697.697 0 0 1-.102.389.689.689 0 0 1-.305.247l.492.93v.022h-.503l-.427-.833zm-.374-.379h.378c.118 0 .209-.03.273-.089a.321.321 0 0 0 .097-.248.343.343 0 0 0-.092-.253c-.06-.061-.154-.092-.28-.092h-.377v.683zm2.755.615a.237.237 0 0 0-.094-.203 1.203 1.203 0 0 0-.337-.15 2.418 2.418 0 0 1-.386-.156c-.258-.14-.388-.328-.388-.564 0-.123.034-.232.103-.328a.688.688 0 0 1 .298-.227c.13-.054.276-.081.438-.081.163 0 .307.03.434.089a.675.675 0 0 1 .295.248.646.646 0 0 1 .106.366h-.469c0-.104-.033-.185-.098-.242s-.158-.087-.277-.087a.426.426 0 0 0-.267.073.225.225 0 0 0-.095.191c0 .074.037.136.111.186.075.05.185.097.33.141.267.08.461.18.583.298s.183.267.183.444a.548.548 0 0 1-.223.464c-.149.111-.349.167-.602.167-.175 0-.334-.032-.478-.095a.773.773 0 0 1-.33-.264.678.678 0 0 1-.112-.388h.47c0 .251.15.377.45.377a.442.442 0 0 0 .261-.067.222.222 0 0 0 .094-.191z"/></symbol><symbol id="logo-5" viewBox="0 0 57 32"><path d="M14.27 23.859c.13.147.199.332.196.521.007.123-.017.247-.07.361s-.132.216-.233.297c-.252.175-.565.26-.881.24h-1.549v-3.302h1.517c.299-.018.596.059.84.219.098.075.176.17.227.277s.074.224.068.341a.725.725 0 0 1-.176.505.839.839 0 0 1-.462.258.897.897 0 0 1 .523.282zm-1.816-.499h.648a.653.653 0 0 0 .412-.11c.049-.04.087-.09.111-.146s.034-.116.028-.176c.005-.06-.005-.12-.029-.175s-.061-.106-.108-.147a.665.665 0 0 0-.425-.111h-.638v.866zm1.124 1.267c.052-.041.093-.093.12-.151s.038-.121.034-.184c.004-.064-.008-.127-.035-.186s-.069-.111-.121-.153a.714.714 0 0 0-.44-.119h-.68v.908h.689a.732.732 0 0 0 .435-.114zM17.371 25.278l-.844-1.291h-.317v1.291h-.726v-3.302h1.374c.346-.022.689.078.957.281.192.179.308.415.327.666s-.061.499-.224.7c-.17.178-.401.296-.655.336l.898 1.32h-.789zm-1.161-1.74h.594c.412 0 .618-.167.618-.5a.458.458 0 0 0-.151-.371.687.687 0 0 0-.467-.134h-.601l.007 1.005zM21.339 24.614h-1.446l-.255.665h-.761l1.328-3.265h.823l1.323 3.265h-.761l-.25-.665zm-.194-.5-.529-1.394-.529 1.394h1.057zM26.305 25.278h-.721l-1.616-2.245v2.245h-.719v-3.302h.719l1.616 2.258v-2.258h.721v3.302zM30.417 24.488a1.501 1.501 0 0 1-.652.582 2.282 2.282 0 0 1-1.013.208h-1.283v-3.302h1.283c.351-.008.698.061 1.013.203.276.127.503.328.652.576a1.78 1.78 0 0 1 0 1.732zm-.824-.079c.206-.219.319-.499.319-.788s-.113-.569-.319-.788a1.326 1.326 0 0 0-.902-.281h-.5v2.137h.5c.329.019.654-.082.902-.281zM21.79 3.609s9.301 3.215 9.103 7.867v7.869s-9.294-3.217-9.1-7.869l-.004-7.867zM39.179 17.503a13.494 13.494 0 0 1 5.909-1.994v-2.463c-2.444.862-4.517 2.426-5.909 4.457z"/><path d="M38.124 18.245c1.438-2.651 3.93-4.696 6.964-5.715V5.432s-13.245 4.58-12.965 11.205V27.84s.59-.205 1.519-.589c0-.358 0-.719.042-1.082.274-3.076 1.871-5.926 4.44-7.924z"/><path d="M36.864 22.407c.07-.777.225-1.546.463-2.294-1.599 1.725-2.568 3.866-2.77 6.122-.019.213-.03.426-.035.645a40.466 40.466 0 0 0 2.548-1.229 10.624 10.624 0 0 1-.206-3.244zM37.391 22.447a10.17 10.17 0 0 0 .164 2.938c3.619-1.983 7.685-5.046 7.528-8.748v-.323c-2.585.265-5.004 1.3-6.885 2.946a10.29 10.29 0 0 0-.807 3.188z"/></symbol><symbol id="logo-6" viewBox="0 0 57 32"><path d="M28.493 14.618a1.58 1.58 0 0 1-.323-1.061v-1.538c0-.471.107-.83.321-1.075s.581-.367 1.102-.366c.489 0 .836.104 1.042.313.224.266.333.592.308.92v.361h-.875v-.366c.003-.12-.005-.24-.025-.358a.352.352 0 0 0-.125-.213.505.505 0 0 0-.317-.083.533.533 0 0 0-.333.088.412.412 0 0 0-.145.235 1.74 1.74 0 0 0-.034.38v1.866c-.014.18.025.36.112.524.044.055.104.099.175.127s.149.038.226.029a.478.478 0 0 0 .31-.084.375.375 0 0 0 .13-.227c.02-.124.03-.249.027-.374v-.379h.875v.346c.025.342-.082.682-.303.967-.201.228-.544.343-1.047.343s-.884-.122-1.1-.375zM32.137 14.633c-.221-.239-.332-.588-.332-1.05v-1.617c0-.457.11-.802.332-1.037s.591-.351 1.109-.35c.515 0 .882.117 1.103.35.221.235.333.58.333 1.037v1.617c0 .457-.112.807-.337 1.048s-.591.361-1.1.361c-.509 0-.886-.122-1.109-.36zm1.517-.388a.906.906 0 0 0 .105-.479v-1.98a.88.88 0 0 0-.103-.469c-.044-.057-.106-.101-.179-.129s-.152-.037-.231-.027c-.079-.009-.159 0-.231.028s-.135.072-.18.129a.853.853 0 0 0-.105.469v1.99a.888.888 0 0 0 .105.479c.051.05.114.091.185.119a.612.612 0 0 0 .635-.119v-.009zM35.735 10.626h.942l.708 2.984.725-2.984h.917l.092 4.308h-.678l-.072-2.994-.699 2.994h-.544l-.725-3.005-.067 3.005h-.685l.085-4.308zM40.176 10.626h1.468c.846 0 1.268.408 1.268 1.223 0 .781-.445 1.171-1.335 1.17h-.5v1.915h-.906l.005-4.308zm1.254 1.841a.7.7 0 0 0 .498-.136.693.693 0 0 0 .13-.486 1.327 1.327 0 0 0-.044-.391c-.013-.043-.036-.083-.067-.118s-.07-.065-.114-.087a.94.94 0 0 0-.404-.069h-.352v1.287h.352zM44.218 10.626h.973l.998 4.308h-.844l-.197-.993h-.868l-.203.993h-.857l.998-4.308zm.832 2.815-.339-1.808-.339 1.808h.678zM46.996 10.626h.634l1.214 2.457v-2.457h.752v4.308h-.603l-1.221-2.565v2.565h-.777l.002-4.308zM51.357 13.291l-1.009-2.659h.85l.616 1.708.578-1.708h.832l-.997 2.659v1.642h-.87v-1.642zM29.892 16.817v.225h-.739v1.75h-.31v-1.75H28.1v-.225h1.792zM32.209 18.793h-.239a.105.105 0 0 1-.067-.019.102.102 0 0 1-.04-.045l-.214-.469h-1.026l-.214.469a.119.119 0 0 1-.033.053.112.112 0 0 1-.067.019h-.239l.906-1.976h.315l.917 1.968zm-1.5-.734h.855l-.362-.804a1.426 1.426 0 0 1-.067-.186 4.03 4.03 0 0 0-.034.105l-.033.083-.359.802zM33.771 18.599a1.018 1.018 0 0 0 .315-.023.961.961 0 0 0 .13-.036c.04-.014.08-.031.121-.048v-.444h-.362c-.009 0-.018-.001-.026-.003s-.016-.007-.023-.012c-.006-.004-.011-.01-.014-.016s-.005-.013-.004-.02v-.152h.703v.757a1.407 1.407 0 0 1-.609.202 2.591 2.591 0 0 1-.264.012 1.41 1.41 0 0 1-.457-.073 1.104 1.104 0 0 1-.362-.206.956.956 0 0 1-.234-.313.99.99 0 0 1-.083-.41.907.907 0 0 1 .316-.726c.103-.089.227-.159.362-.205.155-.05.32-.075.486-.074.084 0 .169.006.252.017a1.21 1.21 0 0 1 .397.128c.056.031.108.065.158.103l-.087.122c-.007.011-.017.021-.029.027s-.027.01-.041.01a.118.118 0 0 1-.056-.016 1.344 1.344 0 0 1-.089-.047.727.727 0 0 0-.121-.053 1.171 1.171 0 0 0-.167-.044 1.362 1.362 0 0 0-.23-.017 1.06 1.06 0 0 0-.35.055.704.704 0 0 0-.435.402.924.924 0 0 0 0 .659.756.756 0 0 0 .446.405c.115.034.237.047.359.039zM36.659 18.567h.989v.225h-1.292v-1.976h.31l-.007 1.75zM38.678 18.792h-.31v-1.976h.31v1.976zM39.83 16.826a.151.151 0 0 1 .047.036l1.324 1.489a.41.41 0 0 1 0-.07v-1.472h.27v1.984h-.156a.14.14 0 0 1-.067-.011.184.184 0 0 1-.049-.038l-1.323-1.488v1.536h-.259v-1.976h.161c.017 0 .035.003.051.009zM43.753 16.817v.217h-1.098v.652h.89v.21h-.89v.674h1.098v.217h-1.417v-1.971h1.417zM11.286 4.616l13.757 3.372v11.818l-13.757-3.371V4.616zm-.882-1.007V17.01l15.52 3.806V7.417L10.404 3.61z"/><path d="M18.722 27.036 3.2 23.227V9.828l15.522 3.807v13.401z"/><path d="m10.661 4.465 13.578 3.33-5.774 4.987L4.885 9.45l5.776-4.985zm-.257-.856L3.2 9.828l15.522 3.807 7.202-6.219-15.52-3.807zM19.595 26.282l6.329-5.465-6.329-1.553v7.018z"/></symbol><symbol id="astronaut" viewBox="0 0 32 32"><path fill="#2196f3" style="fill:var(--color1,#2196f3)" d="M31.974 4.524a.534.534 0 0 0-.43-.363l-1.91-.278-.855-1.731c-.179-.365-.777-.365-.956 0l-.855 1.731-1.91.278a.535.535 0 0 0-.296.91l1.383 1.348-.326 1.903c-.034.2.048.402.212.522a.53.53 0 0 0 .562.04l1.709-.899 1.709.899a.536.536 0 0 0 .775-.563l-.326-1.903 1.383-1.348a.536.536 0 0 0 .135-.547zm-2.463 1.327a.534.534 0 0 0-.153.472l.191 1.114-1-.526a.533.533 0 0 0-.498 0l-1.001.526.191-1.114a.534.534 0 0 0-.153-.472l-.81-.789 1.119-.163a.532.532 0 0 0 .402-.292l.5-1.013.5 1.013a.535.535 0 0 0 .402.292l1.119.163-.809.789zM26.134 20.522h-1.067v1.067h1.067v-1.067zM26.134 22.656h-1.067v1.067h1.067v-1.067zM27.2 21.589h-1.067v1.067H27.2v-1.067zM25.067 21.589H24v1.067h1.067v-1.067zM22.4 26.389h-1.067v1.067H22.4v-1.067zM22.4 28.522h-1.067v1.067H22.4v-1.067zM23.467 27.456H22.4v1.067h1.067v-1.067zM21.333 27.456h-1.067v1.067h1.067v-1.067zM16 24.256h-1.067v1.067H16v-1.067zM16 26.389h-1.067v1.067H16v-1.067zM17.067 25.322H16v1.067h1.067v-1.067zM14.933 25.322h-1.067v1.067h1.067v-1.067zM5.867 6.122H4.8v1.067h1.067V6.122zM5.867 8.255H4.8v1.067h1.067V8.255z"/><path fill="#2196f3" style="fill:var(--color1,#2196f3)" d="M6.933 7.189H5.866v1.067h1.067V7.189zM4.8 7.189H3.733v1.067H4.8V7.189z"/><path fill="#212121" style="fill:var(--color2,#212121)" d="M24.715 14.159a1.775 1.775 0 0 0-1.188-.705 1.778 1.778 0 0 0-1.34.352l-1.252.96-1.898 1.417-1.358-.541c2.421-1.086 4.114-3.508 4.114-6.32 0-3.823-3.123-6.933-6.961-6.933s-6.961 3.11-6.961 6.933a6.86 6.86 0 0 0 1.12 3.758l-2.764-.024h-.005c-.009 0-.015.004-.023.005a.515.515 0 0 0-.155.031l-.038.013c-.006.003-.013.003-.019.006l-3.233 1.596-.001.001-1.893.911a.397.397 0 0 0-.063.035 1.779 1.779 0 0 0-.598 2.295c.22.429.595.745 1.056.889a1.776 1.776 0 0 0 1.378-.128l1.388-.738 2.264-1.169 1.357-.008L2.2 22.211l-.002.001-1.339 1.333c-.316.315-.49.732-.49 1.178s.174.863.49 1.179c.325.323.752.485 1.179.485s.854-.162 1.18-.485l1.314-1.309 1.741-1.3.901.897-1.762 1.754-.002.001-1.339 1.333c-.316.315-.49.732-.49 1.178s.174.863.49 1.179c.325.323.753.485 1.18.485s.855-.162 1.18-.485l3.482-3.467.001-.002 1.01-1-.004-.004c.006-.006.015-.009.022-.015l5.166-5.658 3.471.494a.52.52 0 0 0 .262-.033c.018-.006.033-.015.05-.023.019-.01.039-.015.058-.027l3.213-2.133c.012-.008.018-.021.029-.029.013-.01.029-.014.041-.026l1.271-1.191c.662-.62.753-1.635.212-2.362zM2.13 17.77a.714.714 0 0 1-.558.052.717.717 0 0 1-.213-1.26l1.314-.632.449 1.312-.992.528zm3.498-1.828-1.548.8-.439-1.283 2.027-1.001-.04 1.484zm15.099-6.62a5.79 5.79 0 0 1-.599 2.559l-4.181-1.899a1.863 1.863 0 0 0-.788-1.388l1.464-4.86c2.378.756 4.105 2.974 4.105 5.588zm-11.789 0c0-3.235 2.644-5.867 5.894-5.867.253 0 .5.021.745.052l-1.432 4.754c-.019-.001-.037-.006-.057-.006-1.033 0-1.873.837-1.873 1.867s.84 1.867 1.873 1.867c.694 0 1.294-.383 1.618-.945l3.862 1.755a5.894 5.894 0 0 1-4.737 2.39c-3.25 0-5.894-2.632-5.894-5.867zm5.956.8c0 .441-.362.8-.806.8s-.806-.359-.806-.8c0-.441.362-.8.806-.8s.806.359.806.8zM2.465 25.146a.608.608 0 0 1-.854.001.592.592 0 0 1 0-.844l.962-.958.851.848-.959.955zm3.214 3.734a.608.608 0 0 1-.855.001.592.592 0 0 1 0-.844l.963-.959.852.848-.96.955zm3.481-3.469-.002.001-1.765 1.76-.852-.848 1.763-1.755.002-.001c.04-.04.065-.088.09-.135.007-.014.02-.026.026-.04.017-.041.019-.085.026-.129.003-.025.014-.047.014-.073 0-.036-.013-.07-.02-.106-.006-.032-.006-.065-.019-.095a.55.55 0 0 0-.091-.138c-.01-.012-.014-.027-.025-.038h-.001l-.001-.002-1.607-1.6c-.017-.017-.039-.024-.058-.038a.507.507 0 0 0-.087-.058.515.515 0 0 0-.093-.033.507.507 0 0 0-.103-.02.5.5 0 0 0-.095.005.53.53 0 0 0-.104.02.477.477 0 0 0-.094.045c-.02.011-.042.015-.061.029L4.23 23.486l-.901-.897 2.399-2.386 4.361 4.289-.928.919zm6.819-7.017c-.015-.002-.03.004-.045.003a.556.556 0 0 0-.3.075.492.492 0 0 0-.083.061c-.013.011-.028.017-.04.029l-4.698 5.146-4.328-4.257 2.833-2.818a.534.534 0 0 0-.379-.911v-.001l-2.219.013.028-1.607 3.104.027a6.947 6.947 0 0 0 4.981 2.101c.437 0 .864-.045 1.279-.123.04.032.079.065.13.085l2.41.96.331 1.644-3.003-.427zm4.041.178-.313-1.558 1.446-1.08.947 1.257-2.08 1.381zm3.754-2.831-.838.785-.931-1.236.831-.637a.735.735 0 0 1 .543-.143.718.718 0 0 1 .48.284.713.713 0 0 1-.085.947z"/><path fill="#212121" style="fill:var(--color2,#212121)" d="m13.602 18.544-2.143-2.133a.534.534 0 0 0-.753 0l-2.142 2.133a.537.537 0 0 0 0 .756l2.142 2.133a.536.536 0 0 0 .753 0l2.143-2.133a.535.535 0 0 0 0-.756zm-2.519 1.759-1.387-1.381 1.387-1.381 1.387 1.381-1.387 1.381zM17.164 5.071l-.258 1.036c.071.018 1.738.452 1.738 2.149h1.067c0-2.017-1.666-2.965-2.547-3.185zM19.711 9.322h-1.067v1.067h1.067V9.322z"/></symbol><symbol id="icon-close" viewBox="0 0 320 512"><path d="M310.6 150.6c12.5-12.5 12.5-32.8 0-45.3s-32.8-12.5-45.3 0L160 210.7 54.6 105.4c-12.5-12.5-32.8-12.5-45.3 0s-12.5 32.8 0 45.3L114.7 256 9.4 361.4c-12.5 12.5-12.5 32.8 0 45.3s32.8 12.5 45.3 0L160 301.3l105.4 105.3c12.5 12.5 32.8 12.5 45.3 0s12.5-32.8 0-45.3L205.3 256l105.3-105.4z"/></symbol><symbol id="user-pic" viewBox="0 0 448 512"><path d="M272 304h-96C78.8 304 0 382.8 0 480c0 17.67 14.33 32 32 32h384c17.67 0 32-14.33 32-32 0-97.2-78.8-176-176-176zM48.99 464c7.9-63.1 61.81-112 127.01-112h96c65.16 0 119.1 48.95 127 112H48.99zM224 256c70.69 0 128-57.31 128-128S294.69 0 224 0 96 57.31 96 128c0 70.7 57.3 128 128 128zm0-208c44.11 0 80 35.89 80 80s-35.89 80-80 80-80-35.9-80-80c0-44.11 35.9-80 80-80z"/></symbol><symbol id="user-mail" viewBox="0 0 512 512"><path d="M0 128c0-35.35 28.65-64 64-64h384c35.3 0 64 28.65 64 64v256c0 35.3-28.7 64-64 64H64c-35.35 0-64-28.7-64-64V128zm48 0v22.1l172.5 141.6c20.6 17 50.4 17 71 0L464 150.1v-23c0-7.9-7.2-16-16-16H64c-8.84 0-16 8.1-16 16v.9zm0 84.2V384c0 8.8 7.16 16 16 16h384c8.8 0 16-7.2 16-16V212.2L322 328.8c-38.4 31.5-93.6 31.5-132.9 0L48 212.2z"/></symbol><symbol id="user-phone" viewBox="0 0 384 512"><path d="M16 64C16 28.7 44.7 0 80 0h224c35.3 0 64 28.7 64 64v384c0 35.3-28.7 64-64 64H80c-35.3 0-64-28.7-64-64V64zm128 384c0 8.8 7.2 16 16 16h64c8.8 0 16-7.2 16-16s-7.2-16-16-16h-64c-8.8 0-16 7.2-16 16zM304 64H80v320h224V64z"/></symbol><symbol id="user-mobile" viewBox="0 0 24 32"><path d="M1 4c0-2.206 1.794-4 4-4h14c2.206 0 4 1.794 4 4v24c0 2.206-1.794 4-4 4H5c-2.206 0-4-1.794-4-4V4zm13 24c0-1.106-.894-2-2-2s-2 .894-2 2 .894 2 2 2 2-.894 2-2zm5-24H5v20h14V4z"/></symbol><symbol id="user-id" viewBox="0 0 36 32"><path d="M23 21.5h6a1.5 1.5 0 0 0 0-3h-6a1.5 1.5 0 0 0 0 3zM13 20a4 4 0 1 0 0-8 4 4 0 0 0 0 8zM32 2H4a4 4 0 0 0-4 4v20a4 4 0 0 0 4 4h28a4 4 0 0 0 4-4V6c0-2.209-1.794-4-4-4zm1 24c0 .551-.449 1-1 1H20a5 5 0 0 0-5-5h-4a5 5 0 0 0-5 5H4c-.551 0-1-.449-1-1V10h30v16zm-10-9.5h6a1.5 1.5 0 0 0 0-3h-6a1.5 1.5 0 0 0 0 3z"/></symbol><symbol id="user-mc" viewBox="0 0 576 512"><path d="M482.9 410.3c0 6.8-4.6 11.7-11.2 11.7-6.8 0-11.2-5.2-11.2-11.7 0-6.5 4.4-11.7 11.2-11.7 6.6 0 11.2 5.2 11.2 11.7zm-310.8-11.7c-7.1 0-11.2 5.2-11.2 11.7 0 6.5 4.1 11.7 11.2 11.7 6.5 0 10.9-4.9 10.9-11.7-.1-6.5-4.4-11.7-10.9-11.7zm117.5-.3c-5.4 0-8.7 3.5-9.5 8.7h19.1c-.9-5.7-4.4-8.7-9.6-8.7zm107.8.3c-6.8 0-10.9 5.2-10.9 11.7 0 6.5 4.1 11.7 10.9 11.7 6.8 0 11.2-4.9 11.2-11.7 0-6.5-4.4-11.7-11.2-11.7zm105.9 26.1c0 .3.3.5.3 1.1 0 .3-.3.5-.3 1.1-.3.3-.3.5-.5.8-.3.3-.5.5-1.1.5-.3.3-.5.3-1.1.3-.3 0-.5 0-1.1-.3-.3 0-.5-.3-.8-.5-.3-.3-.5-.5-.5-.8-.3-.5-.3-.8-.3-1.1 0-.5 0-.8.3-1.1 0-.5.3-.8.5-1.1.3-.3.5-.3.8-.5.5-.3.8-.3 1.1-.3.5 0 .8 0 1.1.3.5.3.8.3 1.1.5s.2.6.5 1.1zm-2.2 1.4c.5 0 .5-.3.8-.3.3-.3.3-.5.3-.8 0-.3 0-.5-.3-.8-.3 0-.5-.3-1.1-.3h-1.6v3.5h.8V426h.3l1.1 1.4h.8l-1.1-1.3zM576 81v352c0 26.5-21.5 48-48 48H48c-26.5 0-48-21.5-48-48V81c0-26.5 21.5-48 48-48h480c26.5 0 48 21.5 48 48zM64 220.6c0 76.5 62.1 138.5 138.5 138.5 27.2 0 53.9-8.2 76.5-23.1-72.9-59.3-72.4-171.2 0-230.5-22.6-15-49.3-23.1-76.5-23.1-76.4-.1-138.5 62-138.5 138.2zm224 108.8c70.5-55 70.2-162.2 0-217.5-70.2 55.3-70.5 162.6 0 217.5zm-142.3 76.3c0-8.7-5.7-14.4-14.7-14.7-4.6 0-9.5 1.4-12.8 6.5-2.4-4.1-6.5-6.5-12.2-6.5-3.8 0-7.6 1.4-10.6 5.4V392h-8.2v36.7h8.2c0-18.9-2.5-30.2 9-30.2 10.2 0 8.2 10.2 8.2 30.2h7.9c0-18.3-2.5-30.2 9-30.2 10.2 0 8.2 10 8.2 30.2h8.2v-23zm44.9-13.7h-7.9v4.4c-2.7-3.3-6.5-5.4-11.7-5.4-10.3 0-18.2 8.2-18.2 19.3 0 11.2 7.9 19.3 18.2 19.3 5.2 0 9-1.9 11.7-5.4v4.6h7.9V392zm40.5 25.6c0-15-22.9-8.2-22.9-15.2 0-5.7 11.9-4.8 18.5-1.1l3.3-6.5c-9.4-6.1-30.2-6-30.2 8.2 0 14.3 22.9 8.3 22.9 15 0 6.3-13.5 5.8-20.7.8l-3.5 6.3c11.2 7.6 32.6 6 32.6-7.5zm35.4 9.3-2.2-6.8c-3.8 2.1-12.2 4.4-12.2-4.1v-16.6h13.1V392h-13.1v-11.2h-8.2V392h-7.6v7.3h7.6V416c0 17.6 17.3 14.4 22.6 10.9zm13.3-13.4h27.5c0-16.2-7.4-22.6-17.4-22.6-10.6 0-18.2 7.9-18.2 19.3 0 20.5 22.6 23.9 33.8 14.2l-3.8-6c-7.8 6.4-19.6 5.8-21.9-4.9zm59.1-21.5c-4.6-2-11.6-1.8-15.2 4.4V392h-8.2v36.7h8.2V408c0-11.6 9.5-10.1 12.8-8.4l2.4-7.6zm10.6 18.3c0-11.4 11.6-15.1 20.7-8.4l3.8-6.5c-11.6-9.1-32.7-4.1-32.7 15 0 19.8 22.4 23.8 32.7 15l-3.8-6.5c-9.2 6.5-20.7 2.6-20.7-8.6zm66.7-18.3H408v4.4c-8.3-11-29.9-4.8-29.9 13.9 0 19.2 22.4 24.7 29.9 13.9v4.6h8.2V392zm33.7 0c-2.4-1.2-11-2.9-15.2 4.4V392h-7.9v36.7h7.9V408c0-11 9-10.3 12.8-8.4l2.4-7.6zm40.3-14.9h-7.9v19.3c-8.2-10.9-29.9-5.1-29.9 13.9 0 19.4 22.5 24.6 29.9 13.9v4.6h7.9v-51.7zm7.6-75.1v4.6h.8V302h1.9v-.8h-4.6v.8h1.9zm6.6 123.8c0-.5 0-1.1-.3-1.6-.3-.3-.5-.8-.8-1.1-.3-.3-.8-.5-1.1-.8-.5 0-1.1-.3-1.6-.3-.3 0-.8.3-1.4.3-.5.3-.8.5-1.1.8-.5.3-.8.8-.8 1.1-.3.5-.3 1.1-.3 1.6 0 .3 0 .8.3 1.4 0 .3.3.8.8 1.1.3.3.5.5 1.1.8.5.3 1.1.3 1.4.3.5 0 1.1 0 1.6-.3.3-.3.8-.5 1.1-.8.3-.3.5-.8.8-1.1.3-.6.3-1.1.3-1.4zm3.2-124.7h-1.4l-1.6 3.5-1.6-3.5h-1.4v5.4h.8v-4.1l1.6 3.5h1.1l1.4-3.5v4.1h1.1v-5.4zm4.4-80.5c0-76.2-62.1-138.3-138.5-138.3-27.2 0-53.9 8.2-76.5 23.1 72.1 59.3 73.2 171.5 0 230.5 22.6 15 49.5 23.1 76.5 23.1 76.4.1 138.5-61.9 138.5-138.4z"/></symbol><symbol id="user-visa" viewBox="0 0 576 512"><path d="M470.1 231.3s7.6 37.2 9.3 45H446c3.3-8.9 16-43.5 16-43.5-.2.3 3.3-9.1 5.3-14.9l2.8 13.4zM576 80v352c0 26.5-21.5 48-48 48H48c-26.5 0-48-21.5-48-48V80c0-26.5 21.5-48 48-48h480c26.5 0 48 21.5 48 48zM152.5 331.2 215.7 176h-42.5l-39.3 106-4.3-21.5-14-71.4c-2.3-9.9-9.4-12.7-18.2-13.1H32.7l-.7 3.1c15.8 4 29.9 9.8 42.2 17.1l35.8 135h42.5zm94.4.2L272.1 176h-40.2l-25.1 155.4h40.1zm139.9-50.8c.2-17.7-10.6-31.2-33.7-42.3-14.1-7.1-22.7-11.9-22.7-19.2.2-6.6 7.3-13.4 23.1-13.4 13.1-.3 22.7 2.8 29.9 5.9l3.6 1.7 5.5-33.6c-7.9-3.1-20.5-6.6-36-6.6-39.7 0-67.6 21.2-67.8 51.4-.3 22.3 20 34.7 35.2 42.2 15.5 7.6 20.8 12.6 20.8 19.3-.2 10.4-12.6 15.2-24.1 15.2-16 0-24.6-2.5-37.7-8.3l-5.3-2.5-5.6 34.9c9.4 4.3 26.8 8.1 44.8 8.3 42.2.1 69.7-20.8 70-53zM528 331.4 495.6 176h-31.1c-9.6 0-16.9 2.8-21 12.9l-59.7 142.5H426s6.9-19.2 8.4-23.3H486c1.2 5.5 4.8 23.3 4.8 23.3H528z"/></symbol><symbol id="success" viewBox="0 0 32 32"><path d="M15.238 21.238a1.755 1.755 0 0 1-2.475 0l-4-4c-.681-.681-.681-1.794 0-2.475s1.794-.681 2.475 0L14 17.526l6.762-6.762c.681-.681 1.794-.681 2.475 0s.681 1.794 0 2.475l-8 8zM32 16c0 8.837-7.163 16-16 16S0 24.837 0 16C0 7.162 7.162 0 16 0s16 7.162 16 16zM16 3C8.819 3 3 8.819 3 16s5.819 13 13 13 13-5.819 13-13S23.181 3 16 3z"/></symbol><symbol id="warning" viewBox="0 0 32 32"><path d="M16 32c8.837 0 16-7.163 16-16S24.837 0 16 0 0 7.162 0 16s7.162 16 16 16zm0-24c.831 0 1.5.669 1.5 1.5v7c0 .831-.669 1.5-1.5 1.5s-1.5-.669-1.5-1.5v-7c0-.831.669-1.5 1.5-1.5zm2 14c0 1.106-.894 2-2 2s-2-.894-2-2 .894-2 2-2 2 .894 2 2z"/></symbol><symbol id="icon-check" viewBox="0 0 16 15"><rect width="16" height="15" rx="2" fill="#ff6c00"/><path d="m3.957 7.752-.069-.066-.069.065-.888.842-.076.072.076.073 3.496 3.334.069.066.069-.066 7.504-7.158.076-.073-.076-.072-.882-.841-.069-.066-.069.066-6.553 6.246-2.539-2.422Z" fill="#fff" stroke="#fff" stroke-width=".2"/></symbol><symbol id="icon-uncheck" viewBox="0 0 16 15"><path d="M14.222 1.667v11.666H1.778V1.667h12.444Zm0-1.667H1.778C.8 0 0 .75 0 1.667v11.666C0 14.25.8 15 1.778 15h12.444C15.2 15 16 14.25 16 13.333V1.667C16 .75 15.2 0 14.222 0Z" fill="#212121"/></symbol><symbol id="burger-menu" viewBox="0 0 20 20"><path fill-rule="evenodd" d="M3 5a1 1 0 0 1 1-1h12a1 1 0 1 1 0 2H4a1 1 0 0 1-1-1zm0 5a1 1 0 0 1 1-1h12a1 1 0 1 1 0 2H4a1 1 0 0 1-1-1zm0 5a1 1 0 0 1 1-1h12a1 1 0 1 1 0 2H4a1 1 0 0 1-1-1z" clip-rule="evenodd"/></symbol></defs></svg>